<mxfile host="app.diagrams.net" modified="2024-03-27T09:54:17.063Z" agent="Mozilla/5.0 (Windows NT 10.0; Win64; x64) AppleWebKit/537.36 (KHTML, like Gecko) Chrome/122.0.0.0 Safari/537.36" etag="MJjaxrwnVi5vkcSE5XZ1" version="24.1.0" type="github" pages="2">
  <diagram name="主流程" id="4JdRP81VfbvEzOmJ_fpm">
    <mxGraphModel dx="1434" dy="746" grid="1" gridSize="10" guides="1" tooltips="1" connect="1" arrows="1" fold="1" page="1" pageScale="1" pageWidth="827" pageHeight="1169" math="0" shadow="0">
      <root>
        <mxCell id="0" />
        <mxCell id="1" parent="0" />
        <mxCell id="-mw9_Ihg3tqEqtLX87Jy-1" value="流程" style="swimlane;childLayout=stackLayout;resizeParent=1;resizeParentMax=0;horizontal=1;startSize=35;horizontalStack=0;html=1;fontSize=16;" parent="1" vertex="1">
          <mxGeometry x="60" y="85" width="720" height="584" as="geometry" />
        </mxCell>
        <mxCell id="-mw9_Ihg3tqEqtLX87Jy-2" value="设计" style="swimlane;startSize=30;horizontal=0;html=1;fontSize=16;" parent="-mw9_Ihg3tqEqtLX87Jy-1" vertex="1">
          <mxGeometry y="35" width="720" height="173" as="geometry" />
        </mxCell>
        <mxCell id="-mw9_Ihg3tqEqtLX87Jy-10" value="" style="edgeStyle=orthogonalEdgeStyle;rounded=0;orthogonalLoop=1;jettySize=auto;html=1;fontSize=16;" parent="-mw9_Ihg3tqEqtLX87Jy-2" source="-mw9_Ihg3tqEqtLX87Jy-12" target="-mw9_Ihg3tqEqtLX87Jy-8" edge="1">
          <mxGeometry relative="1" as="geometry">
            <mxPoint x="204" y="80" as="targetPoint" />
          </mxGeometry>
        </mxCell>
        <mxCell id="-mw9_Ihg3tqEqtLX87Jy-5" value="视觉设计师" style="shape=umlActor;verticalLabelPosition=bottom;verticalAlign=top;html=1;outlineConnect=0;fontSize=16;" parent="-mw9_Ihg3tqEqtLX87Jy-2" vertex="1">
          <mxGeometry x="80" y="50" width="30" height="60" as="geometry" />
        </mxCell>
        <mxCell id="-mw9_Ihg3tqEqtLX87Jy-8" value="" style="shape=image;verticalLabelPosition=bottom;labelBackgroundColor=default;verticalAlign=top;aspect=fixed;imageAspect=0;image=data:image/svg+xml,PHN2ZyB4bWxuczp4bGluaz0iaHR0cDovL3d3dy53My5vcmcvMTk5OS94bGluayIgeG1sbnM9Imh0dHA6Ly93d3cudzMub3JnLzIwMDAvc3ZnIiBkYXRhLXYtOTQ1Zjg4NDI9IiIgY2xhc3M9ImhpZGUgZGVmYXVsdC1sb2dvIiB2aWV3Qm94PSIwIDAgMTM4IDQwIiBoZWlnaHQ9IjQwIiB3aWR0aD0iMTM4IiB2ZXJzaW9uPSIxLjEiIGZpbGw9Im5vbmUiPjxjbGlwUGF0aCBpZD0ibWFzdGVyX3N2Z18wIj48cmVjdCByeD0iMCIgaGVpZ2h0PSI0MCIgd2lkdGg9IjEzOCIgeT0iMCIgeD0iMCIvPjwvY2xpcFBhdGg+PGcgY2xpcC1wYXRoPSJ1cmwoI21hc3Rlcl9zdmdfMCkiPjxnPjxwYXRoIGZpbGwtb3BhY2l0eT0iMSIgZmlsbD0iIzEyMTEyNyIgZD0iTTU3LjA5ODA0Njg3NSwxMi4xNzI5MTM0Mzc1QzU3LjE1NjA1Njg3NTAwMDAwNCwxMi4wNTcwMDE4Mzc1LDU3LjI1NzE0Njg3NTAwMDAwNCwxMS45OTkwMjM0Mzc1LDU3LjQwMjE5Njg3NSwxMS45OTkwMjM0Mzc1TDYwLjQ2NTg5Njg3NSwxMS45OTkwMjM0Mzc1QzYwLjUzODM5Njg3NTAwMDAwNCwxMS45OTkwMjM0Mzc1LDYwLjU5NjM5Njg3NDk5OTk5NiwxMi4wMjc5OTA4Mzc1LDYwLjYzOTQ5Njg3NSwxMi4wODU5NjgzMzc1QzYwLjY5NzQ5Njg3NSwxMi4xMjk0NDA0Mzc1LDYwLjcyNjQ5Njg3NSwxMi4xODczNzQ0Mzc1LDYwLjcyNjQ5Njg3NSwxMi4yNTk4MTQ0Mzc1TDYwLjcyNjQ5Njg3NSwyNi45NTA2MjM0Mzc1QzYwLjcyNjQ5Njg3NSwyNy4wMjMwMjM0Mzc1LDYwLjY5NzQ5Njg3NSwyNy4wODgyMjM0Mzc0OTk5OTgsNjAuNjM5NDk2ODc1LDI3LjE0NjIyMzQzNzQ5OTk5OEM2MC41OTYzOTY4NzQ5OTk5OTYsMjcuMTg5NjIzNDM3NSw2MC41MzgzOTY4NzUwMDAwMDQsMjcuMjExNDIzNDM3NTAwMDAyLDYwLjQ2NTg5Njg3NSwyNy4yMTE0MjM0Mzc1MDAwMDJMNTcuMzgwMTk2ODc0OTk5OTk2LDI3LjIxMTQyMzQzNzUwMDAwMkM1Ny4zMDgxMTY4NzQ5OTk5OTYsMjcuMjExNDIzNDM3NTAwMDAyLDU3LjI0MjYzNjg3NSwyNy4xODk2MjM0Mzc1LDU3LjE4NDYyNjg3NSwyNy4xNDYyMjM0Mzc0OTk5OThDNTcuMTQxNTU2ODc1LDI3LjA4ODIyMzQzNzQ5OTk5OCw1Ny4xMTk1NzY4NzUsMjcuMDIzMDIzNDM3NSw1Ny4xMTk1NzY4NzUsMjYuOTUwNjIzNDM3NUw1Ny4xMTk1NzY4NzUsMTguMjE0MzYzNDM3NUM1Ny4xMTk1NzY4NzUsMTguMTU2MzgzNDM3NSw1Ny4xMDUwNzY4NzUsMTguMTI3NDIzNDM3NSw1Ny4wNzYwNjY4NzUsMTguMTI3NDIzNDM3NUM1Ny4wNDcwNTY4NzUsMTguMTI3NDIzNDM3NSw1Ny4wMTgwNTY4NzUsMTguMTQ5MTczNDM3NSw1Ni45ODkwNTY4NzUsMTguMTkyNjAzNDM3NUw1NS4xMjA3NzY4NzUsMjEuMTkxNjQzNDM3NDk5OTk4QzU1LjA2Mjc2Njg3NSwyMS4zMDc1NTM0Mzc0OTk5OTgsNTQuOTYxMjM2ODc1LDIxLjM2NTQ4MzQzNzUsNTQuODE2MjA2ODc1LDIxLjM2NTQ4MzQzNzVMNTMuMjczNTk2ODc1LDIxLjM2NTQ4MzQzNzVDNTMuMTI5MDA2ODc1LDIxLjM2NTQ4MzQzNzUsNTMuMDI3NDg2ODc1LDIxLjMwNzU1MzQzNzQ5OTk5OCw1Mi45Njk0NzY4NzUsMjEuMTkxNjQzNDM3NDk5OTk4TDUxLjA3OTIyNjg3NSwxOC4xNzA4OTM0Mzc1QzUxLjA1MDIxNjg3NSwxOC4xMjc0MjM0Mzc1LDUxLjAyMTIwNjg3NSwxOC4xMDU3MDM0Mzc1LDUwLjk5MjIwNjg3NSwxOC4xMDU3MDM0Mzc1QzUwLjk2MzE5Njg3NSwxOC4xMDU3MDM0Mzc1LDUwLjk0ODY5Njg3NSwxOC4xMzQ2NzM0Mzc1LDUwLjk0ODY5Njg3NSwxOC4xOTI2MDM0Mzc1TDUwLjk0ODY5Njg3NSwyNi45NTA2MjM0Mzc1QzUwLjk0ODY5Njg3NSwyNy4wMjMwMjM0Mzc1LDUwLjkxOTY4Njg3NSwyNy4wODgyMjM0Mzc0OTk5OTgsNTAuODYxNjc2ODc1LDI3LjE0NjIyMzQzNzQ5OTk5OEM1MC44MTg2MDY4NzUsMjcuMTg5NjIzNDM3NSw1MC43NjA1OTY4NzUsMjcuMjExNDIzNDM3NTAwMDAyLDUwLjY4ODA3Njg3NSwyNy4yMTE0MjM0Mzc1MDAwMDJMNDcuNjAyNDE1ODc1LDI3LjIxMTQyMzQzNzUwMDAwMkM0Ny41MzAzMzg4NzUsMjcuMjExNDIzNDM3NTAwMDAyLDQ3LjQ2NDg1Mzg3NSwyNy4xODk2MjM0Mzc1LDQ3LjQwNjg0MjU3NSwyNy4xNDYyMjM0Mzc0OTk5OThDNDcuMzYzNzcyNzc1LDI3LjA4ODIyMzQzNzQ5OTk5OCw0Ny4zNDE3OTY4NzUsMjcuMDIzMDIzNDM3NSw0Ny4zNDE3OTY4NzUsMjYuOTUwNjIzNDM3NUw0Ny4zNDE3OTY4NzUsMTIuMjU5ODE0NDM3NUM0Ny4zNDE3OTY4NzUsMTIuMTg3Mzc0NDM3NSw0Ny4zNjM3NzI3NzUsMTIuMTI5NDQwNDM3NSw0Ny40MDY4NDI1NzUsMTIuMDg1OTY4MzM3NUM0Ny40NjQ4NTM4NzUsMTIuMDI3OTkwODM3NSw0Ny41MzAzMzg4NzUsMTEuOTk5MDIzNDM3NSw0Ny42MDI0MTU4NzUsMTEuOTk5MDIzNDM3NUw1MC42NjYxMDY4NzUsMTEuOTk5MDIzNDM3NUM1MC43OTY2MjY4NzUsMTEuOTk5MDIzNDM3NSw1MC44OTgxNTY4NzUsMTIuMDU3MDAxODM3NSw1MC45NzA2NjY4NzUsMTIuMTcyOTEzNDM3NUw1My45OTA4NDY4NzUsMTYuOTEwNDUzNDM3NUM1NC4wMzQzNTY4NzUsMTYuOTk3MzUzNDM3NSw1NC4wNzc4NjY4NzUsMTYuOTk3MzUzNDM3NSw1NC4xMjA5MzY4NzUsMTYuOTEwNDUzNDM3NUw1Ny4wOTgwNDY4NzUsMTIuMTcyOTEzNDM3NVoiLz48cGF0aCBmaWxsLW9wYWNpdHk9IjEiIGZpbGw9IiMxMjExMjciIGQ9Ik02Ny4zOTU2NTQwNjI1LDE1LjgwMTc1NzgxMjVDNjguMzY2MDU0MDYyNSwxNS44MDE3NTc4MTI1LDY5LjI0MjM5NDA2MjUsMTUuOTY4Mzk1ODEyNSw3MC4wMjQ2ODQwNjI1LDE2LjMwMTYyNTgxMjVDNzAuODA2OTc0MDYyNSwxNi42MjAzNTE4MTI1LDcxLjQyMjcwNDA2MjUsMTcuMDY5NDQ3ODEyNSw3MS44NzE0MjQwNjI1LDE3LjY0ODk2NzgxMjVDNzIuMzIwNTY0MDYyNSwxOC4yMTQwMTc4MTI1LDcyLjU0NTE2NDA2MjQ5OTk5LDE4Ljg0NDI2NzgxMjUsNzIuNTQ1MTY0MDYyNDk5OTksMTkuNTM5NjQ3ODEyNUw3Mi41NDUxNjQwNjI0OTk5OSwyNi45NTAyNTc4MTI1QzcyLjU0NTE2NDA2MjQ5OTk5LDI3LjAyMjY1NzgxMjUsNzIuNTE2MTY0MDYyNSwyNy4wODc4NTc4MTI0OTk5OTgsNzIuNDU4MTY0MDYyNSwyNy4xNDU4NTc4MTI0OTk5OTdDNzIuNDE0NjY0MDYyNSwyNy4xODkyNTc4MTI1LDcyLjM1NzA2NDA2MjUsMjcuMjExMDU3ODEyNSw3Mi4yODQ1NjQwNjI1LDI3LjIxMTA1NzgxMjVMNjkuMTk4ODg0MDYyNSwyNy4yMTEwNTc4MTI1QzY5LjEyNjM3NDA2MjUsMjcuMjExMDU3ODEyNSw2OS4wNjEzMjQwNjI1LDI3LjE4OTI1NzgxMjUsNjkuMDAzMzE0MDYyNSwyNy4xNDU4NTc4MTI0OTk5OTdDNjguOTU5ODA0MDYyNSwyNy4wODc4NTc4MTI0OTk5OTgsNjguOTM4MjY0MDYyNSwyNy4wMjI2NTc4MTI1LDY4LjkzODI2NDA2MjUsMjYuOTUwMjU3ODEyNUw2OC45MzgyNjQwNjI1LDI2LjE4OTY1NzgxMjUwMDAwMkM2OC45MzgyNjQwNjI1LDI2LjEzMTY1NzgxMjUwMDAwMiw2OC45MjM3NjQwNjI1LDI2LjEwMjY1NzgxMjUsNjguODk0NzU0MDYyNSwyNi4xMDI2NTc4MTI1QzY4Ljg2NTc1NDA2MjUsMjYuMDg4MjU3ODEyNSw2OC44MzY3NDQwNjI1LDI2LjEwOTk1NzgxMjUsNjguODA3NzM0MDYyNSwyNi4xNjc5NTc4MTI1QzY4LjI1NzQ5NDA2MjUsMjYuOTc5MjU3ODEyNTAwMDAyLDY3LjMxNTY3NDA2MjUsMjcuMzg0ODU3ODEyNSw2NS45ODMxMzQwNjI1LDI3LjM4NDg1NzgxMjVDNjQuODI0MTk0MDYyNSwyNy4zODQ4NTc4MTI1LDYzLjg5NzMxNDA2MjUsMjcuMTE2ODU3ODEyNSw2My4yMDIwNDQwNjI1LDI2LjU4MDc1NzgxMjVDNjIuNTIxMjY2MDYyNSwyNi4wMzAyNTc4MTI1LDYyLjE4MDY2NDA2MjUsMjUuMjI2MTk3ODEyNSw2Mi4xODA2NjQwNjI1LDI0LjE2ODU2NzgxMjVDNjIuMTgwNjY0MDYyNSwyMy4wNTI5Njc4MTI1LDYyLjU2NDc3NTA2MjUsMjIuMTkwOTQ3ODEyNSw2My4zMzIxMjQwNjI1LDIxLjU4MjQ1NzgxMjVDNjQuMTE0NDI0MDYyNSwyMC45NzM5Nzc4MTI1LDY1LjI0NDM0NDA2MjUsMjAuNjY5NzE3ODEyNSw2Ni43MjE5MTQwNjI1LDIwLjY2OTcxNzgxMjVMNjguODI5NzE0MDYyNSwyMC42Njk3MTc4MTI1QzY4LjkwMjIyNDA2MjUsMjAuNjY5NzE3ODEyNSw2OC45MzgyNjQwNjI1LDIwLjYzMzQ5NzgxMjUsNjguOTM4MjY0MDYyNSwyMC41NjEwNTc4MTI1TDY4LjkzODI2NDA2MjUsMjAuMTQ4MTc3ODEyNTAwMDAyQzY4LjkzODI2NDA2MjUsMTkuNzU2OTY3ODEyNSw2OC44MDc3MzQwNjI1LDE5LjQ1Mjc0NzgxMjUsNjguNTQ3MTE0MDYyNSwxOS4yMzU0Mjc4MTI1QzY4LjI4NjUwNDA2MjUsMTkuMDAzNjA3ODEyNSw2Ny45MjQzNjQwNjI1LDE4Ljg4NzY4NzgxMjUsNjcuNDYwNjk0MDYyNSwxOC44ODc2ODc4MTI1QzY3LjExMzA2NDA2MjUsMTguODg3Njg3ODEyNSw2Ni44MDg5NDQwNjI1LDE4Ljk1MjkxNzgxMjUsNjYuNTQ4MzI0MDYyNSwxOS4wODMyOTc4MTI1QzY2LjMwMTc2NDA2MjUsMTkuMjEzNjY3ODEyNSw2Ni4xNDI2NzQwNjI1LDE5LjM4MDMwNzgxMjUsNjYuMDcwMTU0MDYyNSwxOS41ODMxMTc4MTI1QzY1Ljk5NzYzNDA2MjUsMTkuNzQyNTA3ODEyNSw2NS44OTYxMTQwNjI1LDE5LjgxNDk0NzgxMjUsNjUuNzY2MDI0MDYyNSwxOS44MDA0Mzc4MTI1TDYyLjYzNjg1MzA2MjUsMTkuMzg3NTU3ODEyNUM2Mi40NjMyNTkwNjI1LDE5LjM1ODU0NzgxMjUsNjIuMzc2MjM0MDYyNSwxOS4yOTMzNTc4MTI1LDYyLjM3NjIzNDA2MjUsMTkuMTkxOTU3ODEyNUM2Mi40MzQyNDgwNjI1LDE4LjU1NDUwNzgxMjUsNjIuNjgwMzYyMDYyNSwxNy45ODIxOTc4MTI1LDYzLjExNTAxNzA2MjUsMTcuNDc1MTE3ODEyNUM2My41NjQxNzQwNjI1LDE2Ljk1MzU3NzgxMjUsNjQuMTU3OTI0MDYyNSwxNi41NDc5MTA4MTI1LDY0Ljg5NjcxNDA2MjUsMTYuMjU4MTUyODEyNUM2NS42NTAwMDQwNjI1LDE1Ljk1Mzg4OTgxMjUsNjYuNDgyODM0MDYyNSwxNS44MDE3NTc4MTI1LDY3LjM5NTY1NDA2MjUsMTUuODAxNzU3ODEyNVpNNjcuMDQ4MDE0MDYyNSwyNC43OTg3Njc4MTI1QzY3LjU5ODI2NDA2MjUsMjQuNzk4NzY3ODEyNSw2OC4wNDc0MjQwNjI1LDI0LjY2MTEzNzgxMjUsNjguMzk1MDU0MDYyNSwyNC4zODU4ODc4MTI1MDAwMDJDNjguNzU3MjA0MDYyNSwyNC4wOTYxMjc4MTI1LDY4LjkzODI2NDA2MjUsMjMuNzE5NDI3ODEyNSw2OC45MzgyNjQwNjI1LDIzLjI1NTgyNzgxMjVMNjguOTM4MjY0MDYyNSwyMi43MzQyMzc4MTI0OTk5OThDNjguOTM4MjY0MDYyNSwyMi42NjE3OTc4MTI0OTk5OTgsNjguOTAyMjI0MDYyNSwyMi42MjU1Nzc4MTI1LDY4LjgyOTcxNDA2MjUsMjIuNjI1NTc3ODEyNUw2Ny41MjU3NDQwNjI1LDIyLjYyNTU3NzgxMjVDNjYuOTc1NTA0MDYyNSwyMi42MjU1Nzc4MTI1LDY2LjU0ODMyNDA2MjUsMjIuNzE5Nzc3ODEyNSw2Ni4yNDM3NTQwNjI1LDIyLjkwODA4NzgxMjVDNjUuOTU0MTI0MDYyNSwyMy4wOTY0Mzc4MTI1LDY1LjgwOTUzNDA2MjUsMjMuMzc4OTQ3ODEyNSw2NS44MDk1MzQwNjI1LDIzLjc1NTY0NzgxMjVDNjUuODA5NTM0MDYyNSwyNC4wNzQzNjc4MTI1LDY1LjkxODA4NDA2MjUsMjQuMzI3OTA3ODEyNSw2Ni4xMzUxOTQwNjI1LDI0LjUxNjI2NzgxMjVDNjYuMzUyNzQ0MDYyNSwyNC43MDQ2MTc4MTI1LDY2LjY1Njg3NDA2MjUsMjQuNzk4NzY3ODEyNSw2Ny4wNDgwMTQwNjI1LDI0Ljc5ODc2NzgxMjVaIi8+PHBhdGggZmlsbC1vcGFjaXR5PSIxIiBmaWxsPSIjMTIxMTI3IiBkPSJNNzkuMTEwODI3MTg3NSwyNy4zODQ4NTc4MTI1Qzc4LjA4MTk4NzE4NzUsMjcuMzg0ODU3ODEyNSw3Ny4xODQxMDcxODc1LDI3LjI0NzI1NzgxMjUsNzYuNDE2MzA3MTg3NSwyNi45NzE5NTc4MTI1Qzc1LjY0ODUyNzE4NzUsMjYuNjgyMTU3ODEyNSw3NS4wNTQ3NzcxODc1LDI2LjI4Mzc1NzgxMjUsNzQuNjM0NjIzMTg3NSwyNS43NzY3MDc4MTI1Qzc0LjIyODk3MTE4NzUsMjUuMjU1MTY3ODEyNDk5OTk4LDc0LjAyNjM2NzE4NzUsMjQuNjYxMTM3ODEyNSw3NC4wMjYzNjcxODc1LDIzLjk5NDY3NzgxMjVMNzQuMDI2MzY3MTg3NSwyMy43NTU2NDc4MTI1Qzc0LjAyNjM2NzE4NzUsMjMuNjgzMjA3ODEyNSw3NC4wNDc5MDA0ODc1LDIzLjYyNTI3NzgxMjUwMDAwMiw3NC4wOTE0MDk1ODc1LDIzLjU4MTc5NzgxMjVDNzQuMTQ5NDI0MTg3NSwyMy41MjM4Mjc4MTI1MDAwMDIsNzQuMjE0NDY2MTg3NSwyMy40OTQ4NTc4MTI1LDc0LjI4Njk4NjE4NzUsMjMuNDk0ODU3ODEyNUw3Ny4yMjAxNDcxODc1LDIzLjQ5NDg1NzgxMjVDNzcuMjkyNjU3MTg3NSwyMy40OTQ4NTc4MTI1LDc3LjM1MDY2NzE4NzUsMjMuNTIzODI3ODEyNTAwMDAyLDc3LjM5NDE3NzE4NzUsMjMuNTgxNzk3ODEyNUM3Ny40NTIxOTcxODc1LDIzLjYyNTI3NzgxMjUwMDAwMiw3Ny40ODExOTcxODc1LDIzLjY4MzIwNzgxMjUsNzcuNDgxMTk3MTg3NSwyMy43NTU2NDc4MTI1Qzc3LjQ4MTE5NzE4NzUsMjQuMDMwODk3ODEyNSw3Ny42MzMyNjcxODc1LDI0LjI2MjcyNzgxMjUsNzcuOTM3Mzk3MTg3NSwyNC40NTEwNzc4MTI1Qzc4LjI0MTUxNzE4NzUsMjQuNjI0OTE3ODEyNSw3OC42MjUxODcxODc1LDI0LjcxMTg2NzgxMjUsNzkuMDg4ODU3MTg3NSwyNC43MTE4Njc4MTI1Qzc5LjQ5NDUwNzE4NzUsMjQuNzExODY3ODEyNSw3OS44MTMxMzcxODc1LDI0LjY0NjY3NzgxMjUwMDAwMiw4MC4wNDUxODcxODc1LDI0LjUxNjI2NzgxMjVDODAuMjkxMjk3MTg3NDk5OTksMjQuMzcxMzg3ODEyNSw4MC40MTQzNTcxODc1LDI0LjE4MzAyNzgxMjUsODAuNDE0MzU3MTg3NSwyMy45NTEyNDc4MTI1QzgwLjQxNDM1NzE4NzUsMjMuNzE5NDI3ODEyNSw4MC4yODM4MjcxODc1LDIzLjU1MjgzNzgxMjUsODAuMDIzMjA3MTg3NSwyMy40NTEzODc4MTI1MDAwMDJDNzkuNzc3MDk3MTg3NSwyMy4zMzU1MTc4MTI1LDc5LjM3MTQ0NzE4NzUsMjMuMjI2ODU3ODEyNSw3OC44MDYyNTcxODc1LDIzLjEyNTQwNzgxMjVDNzcuODkzODc3MTg3NSwyMi45NTE1NTc4MTI1LDc3LjE1NTA5NzE4NzUsMjIuNzQxNDk3ODEyNSw3Ni41OTAzNTcxODc1LDIyLjQ5NTIwNzgxMjVDNzUuODUxNTY3MTg3NSwyMi4xOTA5NDc4MTI1LDc1LjI2NDg0NzE4NzUsMjEuODE0Mjg3ODEyNDk5OTk4LDc0LjgzMDE5MzE4NzUsMjEuMzY1MTM3ODEyNTAwMDAyQzc0LjM5NTUzNzE4NzUsMjAuOTAxNTM3ODEyNSw3NC4xNzg0MjgxODc1LDIwLjI3MTI5NzgxMjUwMDAwMiw3NC4xNzg0MjgxODc1LDE5LjQ3NDQ1NzgxMjVDNzQuMTc4NDI4MTg3NSwxOC4zNDQzOTc4MTI1LDc0LjYxMzA4MzE4NzUsMTcuNDUzNDA3ODEyNSw3NS40ODE5NTcxODc1LDE2LjgwMTQ0OTgxMjVDNzYuMzY1Nzc3MTg3NSwxNi4xMzQ5ODc4MTI1LDc3LjUyNDcwNzE4NzUsMTUuODAxNzU3ODEyNSw3OC45NTg3NjcxODc1LDE1LjgwMTc1NzgxMjVDNzkuOTI5MTU3MTg3NSwxNS44MDE3NTc4MTI1LDgwLjc3NjQ5NzE4NzUsMTUuOTYxMTQxODEyNSw4MS41MDA3NzcxODc1LDE2LjI3OTg2NzgxMjVDODIuMjM5NTU3MTg3NSwxNi41ODQxMzA4MTI1LDgyLjgxMTc3NzE4NzUsMTcuMDE4NzY3ODEyNSw4My4yMTc0MjcxODc1LDE3LjU4Mzc3NzgxMjVDODMuNjIzMDc3MTg3NSwxOC4xNDg4Mzc4MTI1LDgzLjgyNTY4NzE4NzUsMTguODAwNzg3ODEyNSw4My44MjU2ODcxODc1LDE5LjUzOTY0NzgxMjVDODMuODI1Njg3MTg3NSwxOS42MTIwODc4MTI1LDgzLjc5NjY3NzE4NzUsMTkuNjc3MzE3ODEyNSw4My43Mzg2NjcxODc1LDE5LjczNTI0NzgxMjVDODMuNjk1NTg3MTg3NSwxOS43Nzg3Mjc4MTI1LDgzLjYzNzU3NzE4NzUsMTkuODAwNDM3ODEyNSw4My41NjUwNjcxODc1LDE5LjgwMDQzNzgxMjVMODAuNzE4NDg3MTg3NSwxOS44MDA0Mzc4MTI1QzgwLjY0NTk2NzE4NzUsMTkuODAwNDM3ODEyNSw4MC41ODA5MjcxODc1LDE5Ljc3ODcyNzgxMjUsODAuNTIyOTE3MTg3NSwxOS43MzUyNDc4MTI1QzgwLjQ3OTQwNzE4NzUsMTkuNjc3MzE3ODEyNSw4MC40NTc4NjcxODc1LDE5LjYxMjA4NzgxMjUsODAuNDU3ODY3MTg3NSwxOS41Mzk2NDc4MTI1QzgwLjQ1Nzg2NzE4NzUsMTkuMjY0Mzk3ODEyNSw4MC4zMjczMzcxODc1LDE5LjAzOTgyNzgxMjUsODAuMDY2NzE3MTg3NSwxOC44NjU5Nzc4MTI1Qzc5LjgwNjEwNzE4NzUsMTguNjkyMTI3ODEyNSw3OS40NTA5OTcxODc1LDE4LjYwNTE4NzgxMjUsNzkuMDAxODM3MTg3NSwxOC42MDUxODc4MTI1Qzc4LjU5NjYyNzE4NzUsMTguNjA1MTg3ODEyNSw3OC4yNjMwNTcxODc1LDE4LjY3NzYyNzgxMjUsNzguMDAyNDM3MTg3NDk5OTksMTguODIyNTA3ODEyNUM3Ny43NTYzMTcxODc1LDE4Ljk1MjkxNzgxMjUsNzcuNjMzMjY3MTg3NSwxOS4xNDEyMjc4MTI1LDc3LjYzMzI2NzE4NzUsMTkuMzg3NTU3ODEyNUM3Ny42MzMyNjcxODc1LDE5LjYzMzg0NzgxMjUsNzcuNzcwODE3MTg3NSwxOS44MTQ5NDc4MTI1LDc4LjA0NTk0NzE4NzUsMTkuOTMwODU3ODEyNUM3OC4zMjEwNTcxODc1LDIwLjAzMjI2NzgxMjUsNzguNzg0NzI3MTg3NSwyMC4xNDgxNzc4MTI1MDAwMDIsNzkuNDM2NDk3MTg3NSwyMC4yNzg1NDc4MTI1QzgwLjI3Njc5NzE4NzUsMjAuNDUyMzk3ODEyNSw4MC44NjM1MTcxODc1LDIwLjU5MDAxNzgxMjUsODEuMTk2NjU3MTg3NSwyMC42OTE0Njc4MTI1QzgyLjA5NDUyNzE4NzUsMjAuOTgxMjI3ODEyNTAwMDAyLDgyLjc4OTgwNzE4NzUsMjEuMzcyMzk3ODEyNSw4My4yODI0NjcxODc1LDIxLjg2NDk2NzgxMjQ5OTk5OEM4My43ODk2NDcxODc1LDIyLjM1NzU3NzgxMjUsODQuMDQzMjY3MTg3NDk5OTksMjMuMDE2NzQ3ODEyNSw4NC4wNDMyNjcxODc0OTk5OSwyMy44NDI1OTc4MTI1Qzg0LjA0MzI2NzE4NzQ5OTk5LDI0Ljk3MjY1NzgxMjUsODMuNTk0MDY3MTg3NSwyNS44NDkxNTc4MTI1LDgyLjY5NTc1NzE4NzQ5OTk5LDI2LjQ3MjE1NzgxMjVDODEuODEyMzc3MTg3NSwyNy4wODA2NTc4MTI1LDgwLjYxNjk2NzE4NzUsMjcuMzg0ODU3ODEyNSw3OS4xMTA4MjcxODc1LDI3LjM4NDg1NzgxMjVaIi8+PHBhdGggZmlsbC1vcGFjaXR5PSIxIiBmaWxsPSIjMTIxMTI3IiBkPSJNOTIuMzE2NTk2NTYyNSwxOC42MDUxMzI1QzkyLjMxNjU5NjU2MjUsMTguNjc3NTcyNSw5Mi4yODc1ODY1NjI1LDE4Ljc0Mjc2MjUsOTIuMjI5NTc2NTYyNSwxOC44MDA3MzI1QzkyLjE4NjA2NjU2MjUsMTguODQ0MjEyNSw5Mi4xMjgwNDY1NjI1LDE4Ljg2NTkyMjUsOTIuMDU1OTc2NTYyNSwxOC44NjU5MjI1TDkwLjA3ODI2NjU2MjUsMTguODY1OTIyNUM5MC4wMDYxODY1NjI1LDE4Ljg2NTkyMjUsODkuOTY5NzE2NTYyNSwxOC45MDIxNDI1LDg5Ljk2OTcxNjU2MjUsMTguOTc0NTgyNUw4OS45Njk3MTY1NjI1LDIyLjkyOTc5MjQ5OTk5OTk5OEM4OS45Njk3MTY1NjI1LDIzLjc1NTU2MjUsOTAuMzAyODQ2NTYyNSwyNC4xNjg1NjI1LDkwLjk2OTExNjU2MjUsMjQuMTY4NTYyNUw5MS43NzMzNzY1NjI1LDI0LjE2ODU2MjVDOTEuODQ1ODk2NTYyNSwyNC4xNjg1NjI1LDkxLjkwMzQ2NjU2MjUsMjQuMTk3NDYyNSw5MS45NDY5NzY1NjI1LDI0LjI1NTQ2MjVDOTIuMDA0OTk2NTYyNSwyNC4yOTg4NjI1LDkyLjAzMzk5NjU2MjUsMjQuMzU2ODYyNSw5Mi4wMzM5OTY1NjI1LDI0LjQyOTI2MjVMOTIuMDMzOTk2NTYyNSwyNi45NTAxNjI0OTk5OTk5OThDOTIuMDMzOTk2NTYyNSwyNy4xMDk1NjI1LDkxLjk0Njk3NjU2MjUsMjcuMjAzNzYyNSw5MS43NzMzNzY1NjI1LDI3LjIzMjY2MjVDOTEuMDc4MTA2NTYyNSwyNy4yNjE2NjI1LDkwLjU3MDkzNjU2MjUsMjcuMjc2MTYyNDk5OTk5OTk4LDkwLjI1MjMwNjU2MjUsMjcuMjc2MTYyNDk5OTk5OTk4Qzg4Ljk5MTg0NjU2MjUsMjcuMjc2MTYyNDk5OTk5OTk4LDg4LjA1NzkyNjU2MjUsMjcuMDgwNTYyNSw4Ny40NDkyMzY1NjI1LDI2LjY4OTM2MjVDODYuODQwOTg2NTYyNSwyNi4yODM3NjI1LDg2LjUyOTM4NjU2MjUsMjUuNTIzMDYyNSw4Ni41MTQ4NzY1NjI1LDI0LjQwNzU2MjQ5OTk5OTk5N0w4Ni41MTQ4NzY1NjI1LDE4Ljk3NDU4MjVDODYuNTE0ODc2NTYyNSwxOC45MDIxNDI1LDg2LjQ3ODgzNjU2MjUsMTguODY1OTIyNSw4Ni40MDYzMjY1NjI1LDE4Ljg2NTkyMjVMODUuMTY3ODM4NTYyNSwxOC44NjU5MjI1Qzg1LjA5NTMyNTU2MjUsMTguODY1OTIyNSw4NS4wMzAyODM1NjI1LDE4Ljg0NDIxMjUsODQuOTcyMjY4OTYyNSwxOC44MDA3MzI1Qzg0LjkyODc1OTg2MjUsMTguNzQyNzYyNSw4NC45MDcyMjY1NjI1LDE4LjY3NzU3MjUsODQuOTA3MjI2NTYyNSwxOC42MDUxMzI1TDg0LjkwNzIyNjU2MjUsMTYuMjM2MzQyNUM4NC45MDcyMjY1NjI1LDE2LjE2MzkwMjUsODQuOTI4NzU5ODYyNSwxNi4xMDU5NzI1LDg0Ljk3MjI2ODk2MjUsMTYuMDYyNDkyNUM4NS4wMzAyODM1NjI1LDE2LjAwNDU2MjUsODUuMDk1MzI1NTYyNSwxNS45NzU1OTI1LDg1LjE2NzgzODU2MjUsMTUuOTc1NTkyNUw4Ni40MDYzMjY1NjI1LDE1Ljk3NTU5MjVDODYuNDc4ODM2NTYyNSwxNS45NzU1OTI1LDg2LjUxNDg3NjU2MjUsMTUuOTM5MzcyNTAwMDAwMDAxLDg2LjUxNDg3NjU2MjUsMTUuODY2OTMyNUw4Ni41MTQ4NzY1NjI1LDEzLjIzNzM1MzVDODYuNTE0ODc2NTYyNSwxMy4xNjQ5MTM1LDg2LjUzNjg1NjU2MjUsMTMuMTA2OTc5NSw4Ni41ODAzNjY1NjI1LDEzLjA2MzUwNzRDODYuNjM3OTM2NTYyNSwxMy4wMDU1NzM1LDg2LjcwMzQxNjU2MjUsMTIuOTc2NTYyNSw4Ni43NzU5MzY1NjI1LDEyLjk3NjU2MjVMODkuNzA5MDk2NTYyNSwxMi45NzY1NjI1Qzg5Ljc4MTYwNjU2MjUsMTIuOTc2NTYyNSw4OS44Mzk2MjY1NjI1LDEzLjAwNTU3MzUsODkuODgyNjk2NTYyNSwxMy4wNjM1MDc0Qzg5Ljk0MDcwNjU2MjUsMTMuMTA2OTc5NSw4OS45Njk3MTY1NjI1LDEzLjE2NDkxMzUsODkuOTY5NzE2NTYyNSwxMy4yMzczNTM1TDg5Ljk2OTcxNjU2MjUsMTUuODY2OTMyNUM4OS45Njk3MTY1NjI1LDE1LjkzOTM3MjUwMDAwMDAwMSw5MC4wMDYxODY1NjI1LDE1Ljk3NTU5MjUsOTAuMDc4MjY2NTYyNSwxNS45NzU1OTI1TDkyLjA1NTk3NjU2MjUsMTUuOTc1NTkyNUM5Mi4xMjgwNDY1NjI1LDE1Ljk3NTU5MjUsOTIuMTg2MDY2NTYyNSwxNi4wMDQ1NjI1LDkyLjIyOTU3NjU2MjUsMTYuMDYyNDkyNUM5Mi4yODc1ODY1NjI1LDE2LjEwNTk3MjUsOTIuMzE2NTk2NTYyNSwxNi4xNjM5MDI1LDkyLjMxNjU5NjU2MjUsMTYuMjM2MzQyNUw5Mi4zMTY1OTY1NjI1LDE4LjYwNTEzMjVaIi8+PHBhdGggZmlsbC1vcGFjaXR5PSIxIiBmaWxsPSIjMTIxMTI3IiBkPSJNMTA0LjA4OTkyODEyNSwyMC42MDQ3NTM0Mzc1QzEwNC4xNjI0MjgxMjUsMjEuMDM5MzkzNDM3NSwxMDQuMTgzOTI4MTI1LDIxLjYxMTY1MzQzNzUsMTA0LjE1NDkyODEyNSwyMi4zMjE1OTM0Mzc1QzEwNC4xNDA5MjgxMjUsMjIuNDk1NDQzNDM3NSwxMDQuMDQ2NDI4MTI1LDIyLjU4MjM0MzQzNzUsMTAzLjg3MjgyODEyNSwyMi41ODIzNDM0Mzc1TDk3LjI0NTcyODEyNSwyMi41ODIzNDM0Mzc1Qzk3LjIxNjcyODEyNSwyMi41ODIzNDM0Mzc1LDk3LjE4NzcxODEyNSwyMi41OTY4NDM0Mzc1LDk3LjE1ODcwODEyNSwyMi42MjU4MTM0Mzc1Qzk3LjEyOTcwODEyNSwyMi42NDAzMTM0Mzc0OTk5OTgsOTcuMTIyMjM4MTI1LDIyLjY2MjAzMzQzNzUsOTcuMTM2NzM4MTI1LDIyLjY5MTAwMzQzNzVDOTcuMTY1NzQ4MTI1LDIyLjg1MDM4MzQzNzUsOTcuMjM4MjU4MTI1LDIzLjA2MDQ1MzQzNzUsOTcuMzU0Mjg4MTI1LDIzLjMyMTI0MzQzNzVDOTcuNTI3ODc4MTI1LDIzLjYyNTUwMzQzNzUsOTcuNzg4OTM4MTI1LDIzLjg3MTc5MzQzNzUsOTguMTM2NTc4MTI1LDI0LjA2MDE0MzQzNzUwMDAwM0M5OC40ODQyMTgxMjUsMjQuMjQ4NDkzNDM3NTAwMDAyLDk4LjkxMTM5ODEyNSwyNC4zNDI2NDM0Mzc1LDk5LjQxODU2ODEyNTAwMDAxLDI0LjM0MjY0MzQzNzVDMTAwLjMzMDk0ODEyNSwyNC4zNDI2NDM0Mzc1LDEwMS4wNDgyMDgxMjUsMjQuMDQ1NjMzNDM3NSwxMDEuNTY5NDM4MTI1LDIzLjQ1MTYxMzQzNzVDMTAxLjYyNzQ0ODEyNSwyMy4zNzkxNzM0Mzc1LDEwMS42OTI0ODgxMjUsMjMuMzQyOTUzNDM3NSwxMDEuNzY1MDA4MTI1LDIzLjM0Mjk1MzQzNzVDMTAxLjgzNzUyODEyNSwyMy4zNDI5NTM0Mzc1LDEwMS44OTU1MzgxMjUsMjMuMzcxOTYzNDM3NSwxMDEuOTM5MDQ4MTI1LDIzLjQyOTkwMzQzNzUwMDAwMkwxMDMuNjEyMjI4MTI1LDI1LjM0MjI5MzQzNzVDMTAzLjY2OTcyODEyNSwyNS4zODU3NjM0Mzc1LDEwMy42OTg3MjgxMjUsMjUuNDQzNzQzNDM3NSwxMDMuNjk4NzI4MTI1LDI1LjUxNjE4MzQzNzVDMTAzLjY5ODcyODEyNSwyNS41NzQxMjM0Mzc1LDEwMy42Njk3MjgxMjUsMjUuNjMyMDUzNDM3NDk5OTk4LDEwMy42MTIyMjgxMjUsMjUuNjkwMDMzNDM3NUMxMDMuMTA1MDE4MTI1LDI2LjI0MDU3MzQzNzUsMTAyLjQ3NDc4ODEyNSwyNi42NjA2NzM0Mzc1LDEwMS43MjE0OTgxMjUsMjYuOTUwNDczNDM3NUMxMDAuOTgyNzE4MTI1LDI3LjI0MDI3MzQzNzUsMTAwLjE3MTQxODEyNSwyNy4zODUwNzM0Mzc0OTk5OTcsOTkuMjg4MDM4MTI1LDI3LjM4NTA3MzQzNzQ5OTk5N0M5Ny45NzAwMTgxMjUsMjcuMzg1MDczNDM3NDk5OTk3LDk2Ljg0NzEwODEyNSwyNy4xMDI1NzM0Mzc1LDk1LjkyMDIyODEyNSwyNi41Mzc1NzM0Mzc1Qzk1LjAwNzQwODEyNSwyNS45NTgwNzM0Mzc0OTk5OTgsOTQuMzQ4NjExMTI1LDI1LjE1Mzk4MzQzNzUwMDAwMyw5My45NDI5NTkxMjUsMjQuMTI1MzIzNDM3NUM5My42Mzg4MzExMjUsMjMuNDAwOTMzNDM3NSw5My40ODYzMjgxMjUsMjIuNDk1NDQzNDM3NSw5My40ODYzMjgxMjUsMjEuNDA4ODQzNDM3NUM5My40ODYzMjgxMjUsMjAuNjU1NDgzNDM3NSw5My42MDIzNTcxMjUsMTkuOTMxMDgzNDM3NSw5My44MzM5NjUxMjUsMTkuMjM1NjUzNDM3NDk5OTk4Qzk0LjIxMDYxMzEyNSwxOC4xNjM1MjM0Mzc1LDk0LjgyNjMzODEyNSwxNy4zMjMyMjM0Mzc1LDk1LjY4MTE0ODEyNDk5OTk5LDE2LjcxNDczNTQzNzVDOTYuNTUwMDE4MTI1LDE2LjA5MTc0NTQzNzUsOTcuNTc4ODU4MTI1LDE1Ljc4MDI3MzQzNzUsOTguNzY2MzY4MTI1LDE1Ljc4MDI3MzQzNzVDOTkuNzIyNjk4MTI1LDE1Ljc4MDI3MzQzNzUsMTAwLjU3NzA2ODEyNSwxNS45OTAzNDA0Mzc1LDEwMS4zMzAzNTgxMjUsMTYuNDEwNTE1NDM3NUMxMDIuMDgzNjM4MTI1LDE2LjgxNjE0MzQzNzUsMTAyLjY5MjMzODEyNDk5OTk5LDE3LjM4ODQ1MzQzNzUsMTAzLjE1NTU1ODEyNSwxOC4xMjczMDM0Mzc1QzEwMy42MzM3MjgxMjUsMTguODUxNzAzNDM3NSwxMDMuOTQ1MzI4MTI1LDE5LjY3NzU0MzQzNzUsMTA0LjA4OTkyODEyNSwyMC42MDQ3NTM0Mzc1Wk05OC43NjYzNjgxMjUsMTguODg3OTIzNDM3NUM5OC4wMTMwNzgxMjQ5OTk5OSwxOC44ODc5MjM0Mzc1LDk3LjUxMzM3ODEyNSwxOS4yNDI5MTM0Mzc1LDk3LjI2NzI1ODEyNSwxOS45NTI4MDM0Mzc1MDAwMDJDOTcuMjA5MjU4MTI1LDIwLjExMjE4MzQzNzUsOTcuMTczMjE4MTI1LDIwLjI2NDI3MzQzNzUsOTcuMTU4NzA4MTI1LDIwLjQwOTE1MzQzNzVDOTcuMTI5NzA4MTI1LDIwLjQ4MTU5MzQzNzUsOTcuMTU4NzA4MTI1LDIwLjUxNzgxMzQzNzUsOTcuMjQ1NzI4MTI1LDIwLjUxNzgxMzQzNzVMMTAwLjMzMDk0ODEyNSwyMC41MTc4MTM0Mzc1QzEwMC4zODg5NjgxMjUsMjAuNTE3ODEzNDM3NSwxMDAuNDE3OTY4MTI1LDIwLjQ4ODg0MzQzNzUsMTAwLjQxNzk2ODEyNSwyMC40MzA5MTM0Mzc1QzEwMC40MTc5NjgxMjUsMjAuMzE1MDAzNDM3NSwxMDAuMzg4OTY4MTI1LDIwLjE3MDEyMzQzNzUsMTAwLjMzMDk0ODEyNSwxOS45OTYyNzM0Mzc1QzEwMC4yMjk0MjgxMjUsMTkuNjM0MDczNDM3NSwxMDAuMDQxMzI4MTI1LDE5LjM1ODc3MzQzNzUsOTkuNzY2MjA4MTI1LDE5LjE3MDQ3MzQzNzVDOTkuNTA1MTQ4MTI1LDE4Ljk4MjEyMzQzNzUsOTkuMTcyMDE4MTI1LDE4Ljg4NzkyMzQzNzUsOTguNzY2MzY4MTI1LDE4Ljg4NzkyMzQzNzVaIi8+PHBhdGggZmlsbC1vcGFjaXR5PSIxIiBmaWxsPSIjMTIxMTI3IiBkPSJNMTExLjYwNDIxNjI1MDAwMDAxLDE1LjgyMzI0MjE4NzVDMTEyLjEyNTQ1NjI1LDE1LjgyMzI0MjE4NzUsMTEyLjUzMTEwNjI1LDE1LjkxNzM5NTU4NzUsMTEyLjgyMDcyNjI1LDE2LjEwNTc0ODE4NzVDMTEyLjkzNjc1NjI1LDE2LjE3ODE4NzE4NzUsMTEyLjk4MDI2NjI1LDE2LjI4Njg0NjE4NzUsMTEyLjk1MTI1NjI1LDE2LjQzMTcyNjE4NzVMMTEyLjQ1MTU1NjI1LDE5LjQ1MjQ3MjE4NzVDMTEyLjQzNzA0NjI1LDE5LjYyNjMyMjE4NzUsMTEyLjMzNTUyNjI1LDE5LjY3NzA0MjE4NzUsMTEyLjE0NzQyNjI1LDE5LjYwNDYwMjE4NzVDMTExLjg4NjgwNjI1LDE5LjU0NjYyMjE4NzUsMTExLjY0MDI1NjI1LDE5LjUxNzY2MjE4NzUsMTExLjQwODY0NjI1LDE5LjUxNzY2MjE4NzVDMTExLjE2MjUzNjI1LDE5LjUxNzY2MjE4NzUsMTEwLjk3Mzk4NjI1LDE5LjUzMjE2MjE4NzUsMTEwLjg0MzQ1NjI1LDE5LjU2MTEzMjE4NzVDMTEwLjM5NDczNjI1LDE5LjYxOTA2MjE4NzUsMTEwLjAxMDYyNjI1LDE5Ljc5MjkxMjE4NzUsMTA5LjY5MTk5NjI1LDIwLjA4MjY3MjE4NzUwMDAwMkMxMDkuMzg3ODY2MjUsMjAuMzcyNDMyMTg3NSwxMDkuMjM1ODA2MjUsMjAuNzU2MzgyMTg3NSwxMDkuMjM1ODA2MjUsMjEuMjM0NDkyMTg3NUwxMDkuMjM1ODA2MjUsMjYuOTQ5OTQyMTg3NUMxMDkuMjM1ODA2MjUsMjcuMDIyNDQyMTg3NDk5OTk4LDEwOS4yMDY3OTYyNSwyNy4wODc1NDIxODc1LDEwOS4xNDg3ODYyNSwyNy4xNDU1NDIxODc1QzEwOS4xMDUyNzYyNSwyNy4xODkwNDIxODc1LDEwOS4wNDcyNjYyNSwyNy4yMTA3NDIxODc1LDEwOC45NzUxODYyNTAwMDAwMSwyNy4yMTA3NDIxODc1TDEwNS44ODk1MjUyNSwyNy4yMTA3NDIxODc1QzEwNS44MTcwMDUyNSwyNy4yMTA3NDIxODc1LDEwNS43NTE5NjMyNSwyNy4xODkwNDIxODc1LDEwNS42OTM5NDg2NSwyNy4xNDU1NDIxODc1QzEwNS42NTA0Mzk1NSwyNy4wODc1NDIxODc1LDEwNS42Mjg5MDYyNSwyNy4wMjI0NDIxODc0OTk5OTgsMTA1LjYyODkwNjI1LDI2Ljk0OTk0MjE4NzVMMTA1LjYyODkwNjI1LDE2LjIzNjEyMTE4NzVDMTA1LjYyODkwNjI1LDE2LjE2MzY4MjE4NzUsMTA1LjY1MDQzOTU1LDE2LjEwNTc0ODE4NzUsMTA1LjY5Mzk0ODY1LDE2LjA2MjI3NTE4NzVDMTA1Ljc1MTk2MzI1LDE2LjAwNDM0MDE4NzUsMTA1LjgxNzAwNTI1LDE1Ljk3NTM3NDE4NzUsMTA1Ljg4OTUyNTI1LDE1Ljk3NTM3NDE4NzVMMTA4Ljk3NTE4NjI1MDAwMDAxLDE1Ljk3NTM3NDE4NzVDMTA5LjA0NzI2NjI1LDE1Ljk3NTM3NDE4NzUsMTA5LjEwNTI3NjI1LDE2LjAwNDM0MDE4NzUsMTA5LjE0ODc4NjI1LDE2LjA2MjI3NTE4NzVDMTA5LjIwNjc5NjI1LDE2LjEwNTc0ODE4NzUsMTA5LjIzNTgwNjI1LDE2LjE2MzY4MjE4NzUsMTA5LjIzNTgwNjI1LDE2LjIzNjEyMTE4NzVMMTA5LjIzNTgwNjI1LDE2LjkzMTU1MjE4NzVDMTA5LjIzNTgwNjI1LDE2Ljk3NTAyMjE4NzUsMTA5LjI1MDMwNjI1LDE3LjAwMzk5MjE4NzUsMTA5LjI3OTMxNjI1LDE3LjAxODQ5MjE4NzVDMTA5LjMwODMxNjI1LDE3LjAzMjk2MjE4NzUsMTA5LjMyOTg1NjI1LDE3LjAxODQ5MjE4NzUsMTA5LjM0NDM1NjI1LDE2Ljk3NTAyMjE4NzVDMTA5LjkyMzYwNjI1LDE2LjIwNzE1NTE4NzUsMTEwLjY3Njg4NjI1LDE1LjgyMzI0MjE4NzUsMTExLjYwNDIxNjI1MDAwMDAxLDE1LjgyMzI0MjE4NzVaIi8+PHBhdGggZmlsbC1vcGFjaXR5PSIxIiBmaWxsPSIjMTIxMTI3IiBkPSJNMTE5LjgzMDA4NTkzNzUsMjcuMzg1MTk1MzEyNTAwMDAyQzExOC42NzExNDU5Mzc1LDI3LjM4NTE5NTMxMjUwMDAwMiwxMTcuNjUwMjE1OTM3NSwyNy4xNTMzOTUzMTI1MDAwMDIsMTE2Ljc2NjM5NTkzNzUsMjYuNjg5Nzk1MzEyNUMxMTUuODk3NTI1OTM3NSwyNi4yMjYxOTUzMTI1LDExNS4yMTYzMTU5Mzc1LDI1LjU3NDI5NTMxMjUsMTE0LjcyNDA3ODkzNzUsMjQuNzMzODk1MzEyNUMxMTQuMjQ1OTIxOTM3NSwyMy44OTM1OTUzMTI1LDExNC4wMDY4MzU5Mzc1LDIyLjkyMjk5NTMxMjUsMTE0LjAwNjgzNTkzNzUsMjEuODIxODU1MzEyNUwxMTQuMDA2ODM1OTM3NSwxNy4zNjY4MjUzMTI0OTk5OThDMTE0LjAwNjgzNTkzNzUsMTYuMjY1NzY1MzEyNSwxMTQuMjQ1OTIxOTM3NSwxNS4zMDIyOTUzMTI1LDExNC43MjQwNzg5Mzc1LDE0LjQ3NjQ5NTMxMjQ5OTk5OUMxMTUuMjE2MzE1OTM3NSwxMy42MzYxODUzMTI1LDExNS44OTc1MjU5Mzc1LDEyLjk4NDIyNTMxMjUsMTE2Ljc2NjM5NTkzNzUsMTIuNTIwNjIzMzEyNUMxMTcuNjUwMjE1OTM3NSwxMi4wNTcwMjAzMTI1LDExOC42NzExNDU5Mzc1LDExLjgyNTE5NTMxMjUsMTE5LjgzMDA4NTkzNzUsMTEuODI1MTk1MzEyNUMxMjAuOTc0NTE1OTM3NSwxMS44MjUxOTUzMTI1LDEyMS45ODg0MjU5Mzc1LDEyLjA0OTc2NzMxMjUsMTIyLjg3MjIzNTkzNzUsMTIuNDk4OTA5MzEyNUMxMjMuNzU1NjE1OTM3NSwxMi45MzM1NDUzMTI1LDEyNC40MzY0MzU5Mzc1LDEzLjUzNDc3NTMxMjUsMTI0LjkxNDUzNTkzNzUsMTQuMzAyNjQ1MzEyNTAwMDAxQzEyNS40MDcyMzU5Mzc1LDE1LjA3MDUxNTMxMjUsMTI1LjY1MzMzNTkzNzUsMTUuOTE4MDI1MzEyNSwxMjUuNjUzMzM1OTM3NSwxNi44NDUyODUzMTI1TDEyNS42NTMzMzU5Mzc1LDE2Ljk1Mzk0NTMxMjVDMTI1LjY1MzMzNTkzNzUsMTcuMDI2Mzg1MzEyNSwxMjUuNjI0MzM1OTM3NSwxNy4wOTE1NjUzMTI1MDAwMDIsMTI1LjU2NjMzNTkzNzUsMTcuMTQ5NTA1MzEyNUMxMjUuNTIyODM1OTM3NSwxNy4xOTI5NzUzMTI1LDEyNS40NjUyMzU5Mzc1LDE3LjIxNDY4NTMxMjUwMDAwMiwxMjUuMzkyNzM1OTM3NDk5OTksMTcuMjE0Njg1MzEyNTAwMDAyTDEyMi4zMDcwNTU5Mzc1LDE3LjIxNDY4NTMxMjUwMDAwMkMxMjIuMjM0OTg1OTM3NSwxNy4yMTQ2ODUzMTI1MDAwMDIsMTIyLjE2OTQ4NTkzNzUsMTcuMTkyOTc1MzEyNSwxMjIuMTExNDg1OTM3NDk5OTksMTcuMTQ5NTA1MzEyNUMxMjIuMDY4NDE1OTM3NDk5OTksMTcuMDkxNTY1MzEyNTAwMDAyLDEyMi4wNDY0MzU5Mzc1MDAwMSwxNy4wMjYzODUzMTI1LDEyMi4wNDY0MzU5Mzc1MDAwMSwxNi45NTM5NDUzMTI1QzEyMi4wNDY0MzU5Mzc1MDAwMSwxNi4zODg4ODUzMTI1LDEyMS44NDM4MjU5Mzc1LDE1LjkxMDc3NTMxMjUsMTIxLjQzODE3NTkzNzUsMTUuNTE5NjE1MzEyNTAwMDAxQzEyMS4wNDcwMzU5Mzc1LDE1LjExMzk0NTMxMjUsMTIwLjUxMDg1NTkzNzUsMTQuOTExMTI1MzEyNSwxMTkuODMwMDg1OTM3NSwxNC45MTExMjUzMTI1QzExOS4xNjM4MTU5Mzc1LDE0LjkxMTEyNTMxMjUsMTE4LjYyODA4NTkzNzUsMTUuMTI4NDQ1MzEyNSwxMTguMjIyNDM1OTM3NSwxNS41NjMwODUzMTI1QzExNy44MTY3ODU5Mzc1LDE1Ljk5NzcyNTMxMjUsMTE3LjYxMzczNTkzNzUsMTYuNTYyNzM1MzEyNSwxMTcuNjEzNzM1OTM3NSwxNy4yNTgxNjUzMTI1TDExNy42MTM3MzU5Mzc1LDIxLjkzMDQ5NTMxMjVDMTE3LjYxMzczNTkzNzUsMjIuNjI1ODk1MzEyNSwxMTcuODM4MzI1OTM3NSwyMy4xOTA5OTUzMTI1LDExOC4yODc0NjU5Mzc1LDIzLjYyNTU5NTMxMjVDMTE4LjczNjYyNTkzNzUsMjQuMDYwMjk1MzEyNSwxMTkuMzAxMzc1OTM3NSwyNC4yNzc1OTUzMTI1LDExOS45ODIxNTU5Mzc1LDI0LjI3NzU5NTMxMjVDMTIwLjYxOTg0NTkzNzUsMjQuMjc3NTk1MzEyNSwxMjEuMTM0MDU1OTM3NSwyNC4xMTA5OTUzMTI1MDAwMDIsMTIxLjUyNTE5NTkzNzUsMjMuNzc3Njk1MzEyNUMxMjEuOTE1OTA1OTM3NSwyMy40Mjk5OTUzMTI0OTk5OTcsMTIyLjExMTQ4NTkzNzQ5OTk5LDIyLjk1MTg5NTMxMjUsMTIyLjExMTQ4NTkzNzQ5OTk5LDIyLjM0MzM5NTMxMjVMMTIyLjExMTQ4NTkzNzQ5OTk5LDIxLjczNDk1NTMxMjVDMTIyLjExMTQ4NTkzNzQ5OTk5LDIxLjY2MjUxNTMxMjUsMTIyLjA3NTQ0NTkzNzUsMjEuNjI2Mjk1MzEyNDk5OTk4LDEyMi4wMDI5MjU5Mzc1LDIxLjYyNjI5NTMxMjQ5OTk5OEwxMTkuODMwMDg1OTM3NSwyMS42MjYyOTUzMTI0OTk5OThDMTE5Ljc1NzU2NTkzNzUsMjEuNjI2Mjk1MzEyNDk5OTk4LDExOS42OTI1MjU5Mzc1LDIxLjYwNDUzNTMxMjQ5OTk5OCwxMTkuNjM0NTA1OTM3NSwyMS41NjExMDUzMTI1QzExOS41OTA5OTU5Mzc1LDIxLjUwMzEyNTMxMjUsMTE5LjU2OTQ3NTkzNzUsMjEuNDM3OTQ1MzEyNSwxMTkuNTY5NDc1OTM3NSwyMS4zNjU1MDUzMTI0OTk5OThMMTE5LjU2OTQ3NTkzNzUsMTguOTc0OTk1MzEyNUMxMTkuNTY5NDc1OTM3NSwxOC45MDI1NTUzMTI1LDExOS41OTA5OTU5Mzc1LDE4Ljg0NDYyNTMxMjUsMTE5LjYzNDUwNTkzNzUsMTguODAxMTU1MzEyNUMxMTkuNjkyNTI1OTM3NSwxOC43NDMxNzUzMTI1LDExOS43NTc1NjU5Mzc1LDE4LjcxNDIwNTMxMjUsMTE5LjgzMDA4NTkzNzUsMTguNzE0MjA1MzEyNUwxMjUuMzkyNzM1OTM3NDk5OTksMTguNzE0MjA1MzEyNUMxMjUuNDY1MjM1OTM3NSwxOC43MTQyMDUzMTI1LDEyNS41MjI4MzU5Mzc1LDE4Ljc0MzE3NTMxMjUsMTI1LjU2NjMzNTkzNzUsMTguODAxMTU1MzEyNUMxMjUuNjI0MzM1OTM3NSwxOC44NDQ2MjUzMTI1LDEyNS42NTMzMzU5Mzc1LDE4LjkwMjU1NTMxMjUsMTI1LjY1MzMzNTkzNzUsMTguOTc0OTk1MzEyNUwxMjUuNjUzMzM1OTM3NSwyMS45MzA0OTUzMTI1QzEyNS42NTMzMzU5Mzc1LDIzLjAxNzA5NTMxMjUsMTI1LjQwNzIzNTkzNzUsMjMuOTczMjk1MzEyNSwxMjQuOTE0NTM1OTM3NSwyNC43OTkwOTUzMTI1QzEyNC40MzY0MzU5Mzc1LDI1LjYyNDk5NTMxMjQ5OTk5OCwxMjMuNzU1NjE1OTM3NSwyNi4yNjIzOTUzMTI1LDEyMi44NzIyMzU5Mzc1LDI2LjcxMTU5NTMxMjUwMDAwMkMxMjIuMDAyOTI1OTM3NSwyNy4xNjA2OTUzMTI1LDEyMC45ODkwMTU5Mzc1LDI3LjM4NTE5NTMxMjUwMDAwMiwxMTkuODMwMDg1OTM3NSwyNy4zODUxOTUzMTI1MDAwMDJaIi8+PHBhdGggZmlsbC1vcGFjaXR5PSIxIiBmaWxsPSIjMTIxMTI3IiBkPSJNMTMyLjUwNTgzMzEyNSwyNy4zODQ4NTc4MTI1QzEzMS4yMDIzMDMxMjUwMDAwMSwyNy4zODQ4NTc4MTI1LDEzMC4wOTM5MDMxMjUsMjcuMDM3MTU3ODEyNSwxMjkuMTgxNTIzMTI1LDI2LjM0MTc1NzgxMjVDMTI4LjI2ODcwMzEyNSwyNS42NDYzMjc4MTI0OTk5OTcsMTI3LjY2MDQ1MDEyNSwyNC43MDQ2MTc4MTI1LDEyNy4zNTYzMTUxMjUsMjMuNTE2NjE3ODEyNUMxMjcuMTgyMjc4NzI1LDIyLjkyMjU4NzgxMjQ5OTk5OCwxMjcuMDk1NzAzMTI1LDIyLjI3MDYzNzgxMjUsMTI3LjA5NTcwMzEyNSwyMS41NjA3NDc4MTI1QzEyNy4wOTU3MDMxMjUsMjAuNzYzOTA3ODEyNSwxMjcuMTg5NzQ5MzI1LDIwLjA2MTIyNzgxMjUsMTI3LjM3Nzg1NTEyNSwxOS40NTI3NDc4MTI1QzEyNy43MTA5ODcxMjUsMTguMzA4MTc3ODEyNSwxMjguMzI2NzEzMTI1LDE3LjQxNzE4NzgxMjUsMTI5LjIyNTAzMzEyNSwxNi43Nzk2OTE4MTI1QzEzMC4xMzc0MTMxMjUsMTYuMTI3NzM1ODEyNSwxMzEuMjM4MzMzMTI1LDE1LjgwMTc1NzgxMjUsMTMyLjUyNzgwMzEyNSwxNS44MDE3NTc4MTI1QzEzMy44MDIzMzMxMjUsMTUuODAxNzU3ODEyNSwxMzQuODgxNzEzMTI1LDE2LjEyNzczNTgxMjUsMTM1Ljc2NTA4MzEyNSwxNi43Nzk2OTE4MTI1QzEzNi42NDg5MDMxMjUsMTcuNDE3MTg3ODEyNSwxMzcuMjY0MjAzMTI1LDE4LjMwMDk2NzgxMjUsMTM3LjYxMjMwMzEyNSwxOS40MzA5ODc4MTI1QzEzNy44MTQ5MDMxMjUsMjAuMDgyOTQ3ODEyNSwxMzcuOTE2NDAzMTI1LDIwLjc3ODM3NzgxMjUsMTM3LjkxNjQwMzEyNSwyMS41MTcyNzc4MTI0OTk5OThDMTM3LjkxNjQwMzEyNSwyMi4xODM2ODc4MTI1LDEzNy44MzY0MDMxMjUsMjIuODIxMTg3ODEyNSwxMzcuNjc3MzAzMTI1LDIzLjQyOTY2NzgxMjVDMTM3LjM3MzIwMzEyNSwyNC42NDY2Mzc4MTI1LDEzNi43NjQ0OTMxMjUsMjUuNjEwMTA3ODEyNSwxMzUuODUyMTEzMTI1LDI2LjMxOTk1NzgxMjVDMTM0LjkzOTI4MzEyNSwyNy4wMjk5NTc4MTI1LDEzMy44MjM4NTMxMjUsMjcuMzg0ODU3ODEyNSwxMzIuNTA1ODMzMTI1LDI3LjM4NDg1NzgxMjVaTTEzMi41MDU4MzMxMjUsMjQuMjk4OTQ3ODEyNUMxMzIuOTI1OTgzMTI1LDI0LjI5ODk0NzgxMjUsMTMzLjI3MzYyMzEyNSwyNC4xNjg1Njc4MTI1LDEzMy41NDg3MzMxMjUsMjMuOTA3Nzc3ODEyNUMxMzMuODIzODUzMTI1LDIzLjYzMjUyNzgxMjUsMTM0LjAyNjkwMzEyNSwyMy4yNjMwNzc4MTI1LDEzNC4xNTc0MzMxMjUsMjIuNzk5NDI3ODEyNUMxMzQuMjQ0MDAzMTI1LDIyLjQyMjc2NzgxMjUsMTM0LjI4NzUxMzEyNSwyMi4wMDk4NDc4MTI1LDEzNC4yODc1MTMxMjUsMjEuNTYwNzQ3ODEyNUMxMzQuMjg3NTEzMTI1LDIxLjEyNjEwNzgxMjUsMTM0LjIzNjk4MzEyNSwyMC43MDU5Mjc4MTI1LDEzNC4xMzU0NjMxMjUsMjAuMzAwMjY3ODEyNUMxMzQuMDE5NDMzMTI1LDE5Ljg1MTE2NzgxMjUsMTMzLjgyMzg1MzEyNSwxOS41MDM0Mjc4MTI1LDEzMy41NDg3MzMxMjUsMTkuMjU3MTM3ODEyNDk5OTk4QzEzMy4yNzM2MjMxMjUsMTkuMDEwODU3ODEyNSwxMzIuOTI1OTgzMTI1LDE4Ljg4NzY4NzgxMjUsMTMyLjUwNTgzMzEyNSwxOC44ODc2ODc4MTI1QzEzMS42NjU1MzMxMjUsMTguODg3Njg3ODEyNSwxMzEuMTE1MjgzMTI1LDE5LjM1ODU0NzgxMjUsMTMwLjg1NDY3MzEyNSwyMC4zMDAyNjc4MTI1QzEzMC43Njc2NTMxMjUsMjAuNjQ3OTk3ODEyNSwxMzAuNzI0MTQzMTI1LDIxLjA2ODEyNzgxMjUwMDAwMiwxMzAuNzI0MTQzMTI1LDIxLjU2MDc0NzgxMjVDMTMwLjcyNDE0MzEyNSwyMi4wMDk4NDc4MTI1LDEzMC43Njc2NTMxMjUsMjIuNDIyNzY3ODEyNSwxMzAuODU0NjczMTI1LDIyLjc5OTQyNzgxMjVDMTMwLjk3MDI1MzEyNSwyMy4yNjMwNzc4MTI1LDEzMS4xNjU4MTMxMjUsMjMuNjMyNTI3ODEyNSwxMzEuNDQxMzgzMTI1LDIzLjkwNzc3NzgxMjVDMTMxLjczMTAwMzEyNSwyNC4xNjg1Njc4MTI1LDEzMi4wODU2ODMxMjUsMjQuMjk4OTQ3ODEyNSwxMzIuNTA1ODMzMTI1LDI0LjI5ODk0NzgxMjVaIi8+PGc+PHBhdGggZmlsbC1vcGFjaXR5PSIxIiBmaWxsPSIjMzY2MkVCIiBkPSJNMC41NDk5MzY1NDI5Njg3NDk5LDI4LjgwMDg2NTg0MzIwMDY4M0wxMS4wNTU2MDY1NDI5Njg3NSw4LjQxOTc5NTg0MzIwMDY4M0MxMi4wMjAxMDY1NDI5Njg3NSw2LjU0ODg1NTg0MzIwMDY4NCwxNC42Nzk1MDY1NDI5Njg3NSw2LjUwNjI2Mjg0MzIwMDY4NCwxNS43MDMzMDY1NDI5Njg3NSw4LjM0NTMzNTg0MzIwMDY4M0wyNy4wMDU1MDY1NDI5Njg3NSwyOC42NDczNjU4NDMyMDA2ODVDMjguMTQ5MjA2NTQyOTY4NzUsMzAuNzAxNjY1ODQzMjAwNjgzLDI2LjIzNjcwNjU0Mjk2ODc1LDMzLjExMjY2NTg0MzIwMDY5LDIzLjk3NjQwNjU0Mjk2ODc1LDMyLjQ2NTk2NTg0MzIwMDY4NUwxNC42NjY5MDY1NDI5Njg3NSwyOS44MDI0NjU4NDMyMDA2ODJDMTQuMTkzMTA2NTQyOTY4NzUsMjkuNjY2OTY1ODQzMjAwNjgyLDEzLjY5MTAwNjU0Mjk2ODc1LDI5LjY2Njg2NTg0MzIwMDY4MiwxMy4yMTcyMDY1NDI5Njg3NSwyOS44MDIyNjU4NDMyMDA2ODNMMy42MTgxNTY1NDI5Njg3NSwzMi41NDUyNjU4NDMyMDA2OEMxLjM5NzA4NjU0Mjk2ODc1LDMzLjE3OTk2NTg0MzIwMDY4NCwtMC41MDg1NjI0NTcwMzEyNSwzMC44NTQyNjU4NDMyMDA2ODIsMC41NDk5MzY1NDI5Njg3NDk5LDI4LjgwMDg2NTg0MzIwMDY4M1oiLz48cGF0aCBmaWxsLW9wYWNpdHk9IjAuNSIgZmlsbD0iIzM2NjJFQiIgZmlsbC1ydWxlPSJldmVub2RkIiBkPSJNMzEuODMwMzU0OTgwNDY4NzQ4LDMxLjIyNDQ2NTg0MzIwMDY4M0wzNi4xNjk5NTQ5ODA0Njg3NSwzMi40NjU5NjU4NDMyMDA2ODVDMzguNDMwMTU0OTgwNDY4NzUsMzMuMTEyNjY1ODQzMjAwNjksNDAuMzQyNzU0OTgwNDY4NzU0LDMwLjcwMTY2NTg0MzIwMDY4MywzOS4xOTkwNTQ5ODA0Njg3NDUsMjguNjQ3MzY1ODQzMjAwNjg1TDI3Ljg5Njg3NDk4MDQ2ODc1Miw4LjM0NTM1NTg0MzIwMDY4NEMyNi44NzMwMzQ5ODA0Njg3NTIsNi41MDYyMzQ4NDMyMDA2ODQsMjQuMjEzNTk0OTgwNDY4NzUsNi41NDg4NzI4NDMyMDA2ODQsMjMuMjQ5MTc0OTgwNDY4NzUsOC40MTk4MTU4NDMyMDA2ODRMMjEuMzg4ODU0OTgwNDY4NzUsMTIuMDI4ODI1ODQzMjAwNjg0TDMxLjgzMDM1NDk4MDQ2ODc0OCwzMS4yMjQ0NjU4NDMyMDA2ODNaIi8+PC9nPjwvZz48L2c+PC9zdmc+;fontSize=16;" parent="-mw9_Ihg3tqEqtLX87Jy-2" vertex="1">
          <mxGeometry x="410" y="60" width="138" height="40" as="geometry" />
        </mxCell>
        <mxCell id="-mw9_Ihg3tqEqtLX87Jy-11" value="" style="edgeStyle=orthogonalEdgeStyle;rounded=0;orthogonalLoop=1;jettySize=auto;html=1;fontSize=16;" parent="-mw9_Ihg3tqEqtLX87Jy-2" source="-mw9_Ihg3tqEqtLX87Jy-5" target="-mw9_Ihg3tqEqtLX87Jy-12" edge="1">
          <mxGeometry relative="1" as="geometry">
            <mxPoint x="170" y="185" as="sourcePoint" />
            <mxPoint x="470" y="185" as="targetPoint" />
          </mxGeometry>
        </mxCell>
        <mxCell id="-mw9_Ihg3tqEqtLX87Jy-12" value="视觉稿" style="rounded=0;whiteSpace=wrap;html=1;fontSize=16;" parent="-mw9_Ihg3tqEqtLX87Jy-2" vertex="1">
          <mxGeometry x="210" y="50" width="120" height="60" as="geometry" />
        </mxCell>
        <mxCell id="-mw9_Ihg3tqEqtLX87Jy-3" value="使用者" style="swimlane;startSize=30;horizontal=0;html=1;fontSize=16;" parent="-mw9_Ihg3tqEqtLX87Jy-1" vertex="1">
          <mxGeometry y="208" width="720" height="376" as="geometry" />
        </mxCell>
        <mxCell id="-mw9_Ihg3tqEqtLX87Jy-16" value="" style="edgeStyle=orthogonalEdgeStyle;rounded=0;orthogonalLoop=1;jettySize=auto;html=1;dashed=1;fontSize=16;" parent="-mw9_Ihg3tqEqtLX87Jy-3" edge="1">
          <mxGeometry relative="1" as="geometry">
            <mxPoint x="133" y="223" as="sourcePoint" />
            <mxPoint x="180" y="223" as="targetPoint" />
          </mxGeometry>
        </mxCell>
        <mxCell id="-mw9_Ihg3tqEqtLX87Jy-29" style="edgeStyle=orthogonalEdgeStyle;rounded=0;orthogonalLoop=1;jettySize=auto;html=1;entryX=0;entryY=0.5;entryDx=0;entryDy=0;exitX=0.5;exitY=0;exitDx=0;exitDy=0;exitPerimeter=0;" parent="-mw9_Ihg3tqEqtLX87Jy-3" source="-mw9_Ihg3tqEqtLX87Jy-14" target="-mw9_Ihg3tqEqtLX87Jy-15" edge="1">
          <mxGeometry relative="1" as="geometry" />
        </mxCell>
        <mxCell id="-mw9_Ihg3tqEqtLX87Jy-14" value="开发" style="shape=umlActor;verticalLabelPosition=bottom;verticalAlign=top;html=1;outlineConnect=0;fontSize=16;" parent="-mw9_Ihg3tqEqtLX87Jy-3" vertex="1">
          <mxGeometry x="80" y="193" width="30" height="60" as="geometry" />
        </mxCell>
        <mxCell id="-mw9_Ihg3tqEqtLX87Jy-15" value="框选视觉稿" style="whiteSpace=wrap;html=1;verticalAlign=middle;fontSize=16;" parent="-mw9_Ihg3tqEqtLX87Jy-3" vertex="1">
          <mxGeometry x="200.5" y="62" width="120" height="60" as="geometry" />
        </mxCell>
        <mxCell id="-mw9_Ihg3tqEqtLX87Jy-22" value="" style="edgeStyle=orthogonalEdgeStyle;rounded=0;orthogonalLoop=1;jettySize=auto;html=1;fontSize=16;" parent="-mw9_Ihg3tqEqtLX87Jy-3" source="-mw9_Ihg3tqEqtLX87Jy-6" target="-mw9_Ihg3tqEqtLX87Jy-21" edge="1">
          <mxGeometry relative="1" as="geometry" />
        </mxCell>
        <mxCell id="-mw9_Ihg3tqEqtLX87Jy-6" value="CCODE" style="shape=image;verticalLabelPosition=bottom;labelBackgroundColor=default;verticalAlign=top;aspect=fixed;imageAspect=0;image=data:image/svg+xml,PHN2ZyB4bWxuczp4bGluaz0iaHR0cDovL3d3dy53My5vcmcvMTk5OS94bGluayIgeG1sbnM9Imh0dHA6Ly93d3cudzMub3JnLzIwMDAvc3ZnIiB2aWV3Qm94PSIwIDAgNDAgNDAiIGhlaWdodD0iNDAiIHdpZHRoPSI0MCIgdmVyc2lvbj0iMS4xIiBmaWxsPSJub25lIj48ZGVmcz48Y2xpcFBhdGggaWQ9Im1hc3Rlcl9zdmcwXzM1N18zMjQ5Ij48cmVjdCByeD0iMCIgaGVpZ2h0PSI0MCIgd2lkdGg9IjQwIiB5PSIwIiB4PSIwIi8+PC9jbGlwUGF0aD48bGluZWFyR3JhZGllbnQgaWQ9Im1hc3Rlcl9zdmcxXzYyXzA5MDI5IiB5Mj0iMSIgeDI9IjEiIHkxPSIwIiB4MT0iMCI+PHN0b3Agc3RvcC1vcGFjaXR5PSIxIiBzdG9wLWNvbG9yPSIjNDU3RUZGIiBvZmZzZXQ9IjAlIi8+PHN0b3Agc3RvcC1vcGFjaXR5PSIxIiBzdG9wLWNvbG9yPSIjMDdCOUI5IiBvZmZzZXQ9Ijk5Ljk5OTkwNDYzMjU2ODM2JSIvPjwvbGluZWFyR3JhZGllbnQ+PC9kZWZzPjxnIGNsaXAtcGF0aD0idXJsKCNtYXN0ZXJfc3ZnMF8zNTdfMzI0OSkiIHN0eWxlPSJtaXgtYmxlbmQtbW9kZTpwYXNzdGhyb3VnaCI+PGcgc3R5bGU9Im1peC1ibGVuZC1tb2RlOnBhc3N0aHJvdWdoIj48cGF0aCBmaWxsLW9wYWNpdHk9IjEiIGZpbGw9InVybCgjbWFzdGVyX3N2ZzFfNjJfMDkwMjkpIiBmaWxsLXJ1bGU9ImV2ZW5vZGQiIGQ9Ik0yNy41NjgxLDMwLjU1ODg2NDE0NDg5NzQ2QzMzLjM1NTcsMzAuNDA1OTY0MTQ0ODk3NDYsMzgsMjUuNzM3MzY0MTQ0ODk3NDYyLDM4LDIwLjAwMTM2NDE0NDg5NzQ2QzM4LDE0LjQwNDg5NDE0NDg5NzQ2MiwzMy41Nzg5MDAwMDAwMDAwMDQsOS44MjQ3MzAxNDQ4OTc0NjIsMjcuOTg3Myw5LjQ2MjcxNTE0NDg5NzQ2TDI2LjAxMDksOS40NDM5NDMyNDQ4OTc0NjFMMTkuODI1OCw5LjQxMTc2NDE0NDg5NzQ2MUwxOC4xOTI0LDE1LjQyMTIxNDE0NDg5NzQ2MkwyNC4zODU3LDE1LjQyMTIxNDE0NDg5NzQ2MkwyNy40NzgyLDE1LjQyMTIxNDE0NDg5NzQ2MkMyOS45NDQ2LDE1LjUyNTgwNDE0NDg5NzQ2LDMxLjkzNDcsMTcuNTUwNDA0MTQ0ODk3NDYzLDMxLjkzNDcsMjAuMDA0MDY0MTQ0ODk3NDYzQzMxLjkzNDcsMjIuNDQ0MzY0MTQ0ODk3NDYzLDI5Ljk5NjQsMjQuNDQyMDY0MTQ0ODk3NDYsMjcuNTU0NSwyNC41ODE1NjQxNDQ4OTc0NjNMMjEuODk0NywyNC41ODE1NjQxNDQ4OTc0NjNMMjMuOTUwMSwxNy4wMTY3NjQxNDQ4OTc0NkwxNy43NTk1LDE3LjAxNjc2NDE0NDg5NzQ2TDE0LjA3NjIsMzAuNTQ4MDY0MTQ0ODk3NDZMMTguODY0OCwzMC41NDgwNjQxNDQ4OTc0NkMyMS43NjQxLDMwLjU1ODg2NDE0NDg5NzQ2LDI0LjY3MTUsMzAuNjI1ODY0MTQ0ODk3NDYsMjcuNTY4MSwzMC41NTg4NjQxNDQ4OTc0NlpNMTQuMDMyNywyNC41NzM0NjQxNDQ4OTc0NkwxMi4zMzM5LDI0LjU3MzQ2NDE0NDg5NzQ2QzkuOTQzNzQsMjQuMzgwNDY0MTQ0ODk3NDYsOC4wNjUzMzk5OTk5OTk5OTksMjIuNDA2NzY0MTQ0ODk3NDYsOC4wNjUzMzk5OTk5OTk5OTksMjAuMDA0MDY0MTQ0ODk3NDYzQzguMDY1MzM5OTk5OTk5OTk5LDE3LjQ3MjYzNDE0NDg5NzQ2MiwxMC4xNTA2NCwxNS40MTU4NTQxNDQ4OTc0NiwxMi43MjA1LDE1LjQxNTg1NDE0NDg5NzQ2TDE2LjUxNTQsMTUuNDE1ODU0MTQ0ODk3NDZMMTguMTQzNCw5LjQzODU4MDE0NDg5NzQ2MUwxMi43MjMyLDkuNDM4NTgwMTQ0ODk3NDYxQzYuODAyMTgsOS40Mzg1ODAxNDQ4OTc0NjEsMiwxNC4xNjg5MTQxNDQ4OTc0NiwyLDIwLjAwMTM2NDE0NDg5NzQ2QzIsMjUuNzI2NTY0MTQ0ODk3NDYzLDYuNjI3OTUsMzAuMzg5ODY0MTQ0ODk3NDYyLDEyLjM5OTMsMzAuNTU4ODY0MTQ0ODk3NDZMMTIuNDAyLDMwLjU0ODA2NDE0NDg5NzQ2TDEyLjQwNzQsMzAuNTQ4MDY0MTQ0ODk3NDZMMTQuMDMyNywyNC41NzM0NjQxNDQ4OTc0NloiLz48L2c+PC9nPjwvc3ZnPg==;fontSize=16;" parent="-mw9_Ihg3tqEqtLX87Jy-3" vertex="1">
          <mxGeometry x="420" y="60" width="64" height="64" as="geometry" />
        </mxCell>
        <mxCell id="-mw9_Ihg3tqEqtLX87Jy-25" value="commit" style="edgeStyle=orthogonalEdgeStyle;rounded=0;orthogonalLoop=1;jettySize=auto;html=1;fontSize=16;" parent="-mw9_Ihg3tqEqtLX87Jy-3" source="-mw9_Ihg3tqEqtLX87Jy-20" target="-mw9_Ihg3tqEqtLX87Jy-23" edge="1">
          <mxGeometry relative="1" as="geometry" />
        </mxCell>
        <mxCell id="-mw9_Ihg3tqEqtLX87Jy-20" value="出码插件" style="shape=image;verticalLabelPosition=bottom;labelBackgroundColor=default;verticalAlign=top;aspect=fixed;imageAspect=0;image=data:image/svg+xml,PHN2ZyB4bWxuczp4bGluaz0iaHR0cDovL3d3dy53My5vcmcvMTk5OS94bGluayIgeG1sbnM9Imh0dHA6Ly93d3cudzMub3JnLzIwMDAvc3ZnIiBoZWlnaHQ9IjMyIiB3aWR0aD0iMzIiIHZlcnNpb249IjEuMSIgdmlld0JveD0iMCAwIDEwMjQgMTAyNCIgY2xhc3M9Imljb24iPjxwYXRoIGZpbGw9IiM1MTUxNTEiIGQ9Ik0zNDEuMzMzMzMzIDE2MGg1MTJ2LTY0SDM0MS4zMzMzMzN2NjR6TTUzLjMzMzMzMyA1MTJBMTYwIDE2MCAwIDAgMCAyMTMuMzMzMzMzIDY3MnYtNjRBOTYgOTYgMCAwIDEgMTE3LjMzMzMzMyA1MTJoLTY0ek0yMTMuMzMzMzMzIDM1MkExNjAgMTYwIDAgMCAwIDUzLjMzMzMzMyA1MTJoNjRBOTYgOTYgMCAwIDEgMjEzLjMzMzMzMyA0MTZ2LTY0ek03MzYgNTEyQTE2MCAxNjAgMCAwIDAgODk2IDY3MnYtNjRBOTYgOTYgMCAwIDEgODAwIDUxMmgtNjR6TTg5NiAzNTJBMTYwIDE2MCAwIDAgMCA3MzYgNTEyaDY0QTk2IDk2IDAgMCAxIDg5NiA0MTZ2LTY0eiBtLTI5OC42NjY2NjcgMzQxLjMzMzMzM0ExNjAgMTYwIDAgMCAwIDQzNy4zMzMzMzMgODUzLjMzMzMzM2g2NEE5NiA5NiAwIDAgMSA1OTcuMzMzMzMzIDc1Ny4zMzMzMzN2LTY0ek03NTcuMzMzMzMzIDg1My4zMzMzMzNBMTYwIDE2MCAwIDAgMCA1OTcuMzMzMzMzIDY5My4zMzMzMzN2NjRBOTYgOTYgMCAwIDEgNjkzLjMzMzMzMyA4NTMuMzMzMzMzaDY0eiBtMjEzLjMzMzMzNC01MTJWMjEzLjMzMzMzM2gtNjR2MTI4aDY0eiBtLTY0IDM0MS4zMzMzMzR2MTI4aDY0di0xMjhoLTY0ek03NjggOTI4aDg1LjMzMzMzM3YtNjRoLTg1LjMzMzMzM3Y2NHogbS0zNDEuMzMzMzMzLTY0SDM0MS4zMzMzMzN2NjRoODUuMzMzMzM0di02NHpNMjg4IDM0MS4zMzMzMzNWMjEzLjMzMzMzM2gtNjR2MTI4aDY0eiBtLTY0IDM0MS4zMzMzMzR2MTI4aDY0di0xMjhoLTY0ek04OTYgNjcyYTEwLjY2NjY2NyAxMC42NjY2NjcgMCAwIDEgMTAuNjY2NjY3IDEwLjY2NjY2N2g2NEE3NC42NjY2NjcgNzQuNjY2NjY3IDAgMCAwIDg5NiA2MDh2NjR6IG0wLTI1NkE3NC42NjY2NjcgNzQuNjY2NjY3IDAgMCAwIDk3MC42NjY2NjcgMzQxLjMzMzMzM2gtNjRhMTAuNjY2NjY3IDEwLjY2NjY2NyAwIDAgMS0xMC42NjY2NjcgMTAuNjY2NjY3djY0eiBtLTY4Mi42NjY2NjcgMjU2YTEwLjY2NjY2NyAxMC42NjY2NjcgMCAwIDEgMTAuNjY2NjY3IDEwLjY2NjY2N2g2NEE3NC42NjY2NjcgNzQuNjY2NjY3IDAgMCAwIDIxMy4zMzMzMzMgNjA4djY0ek00MzcuMzMzMzMzIDg1My4zMzMzMzNhMTAuNjY2NjY3IDEwLjY2NjY2NyAwIDAgMS0xMC42NjY2NjYgMTAuNjY2NjY3djY0QTc0LjY2NjY2NyA3NC42NjY2NjcgMCAwIDAgNTAxLjMzMzMzMyA4NTMuMzMzMzMzaC02NHpNMjEzLjMzMzMzMyA0MTZBNzQuNjY2NjY3IDc0LjY2NjY2NyAwIDAgMCAyODggMzQxLjMzMzMzM2gtNjRhMTAuNjY2NjY3IDEwLjY2NjY2NyAwIDAgMS0xMC42NjY2NjcgMTAuNjY2NjY3djY0ek02OTMuMzMzMzMzIDg1My4zMzMzMzNjMCA0MS4yMTYgMzMuNDUwNjY3IDc0LjY2NjY2NyA3NC42NjY2NjcgNzQuNjY2NjY3di02NGExMC42NjY2NjcgMTAuNjY2NjY3IDAgMCAxLTEwLjY2NjY2Ny0xMC42NjY2NjdoLTY0ek0zNDEuMzMzMzMzIDg2NGMtMjkuNDQgMC01My4zMzMzMzMtMjMuODkzMzMzLTUzLjMzMzMzMy01My4zMzMzMzNoLTY0QTExNy4zMzMzMzMgMTE3LjMzMzMzMyAwIDAgMCAzNDEuMzMzMzMzIDkyOHYtNjR6TTkwNi42NjY2NjcgODEwLjY2NjY2N2MwIDI5LjQ0LTIzLjg5MzMzMyA1My4zMzMzMzMtNTMuMzMzMzM0IDUzLjMzMzMzM3Y2NEExMTcuMzMzMzMzIDExNy4zMzMzMzMgMCAwIDAgOTcwLjY2NjY2NyA4MTAuNjY2NjY3aC02NHpNODUzLjMzMzMzMyAxNjBjMjkuNDQgMCA1My4zMzMzMzMgMjMuODkzMzMzIDUzLjMzMzMzNCA1My4zMzMzMzNoNjRBMTE3LjMzMzMzMyAxMTcuMzMzMzMzIDAgMCAwIDg1My4zMzMzMzMgOTZ2NjR6TTM0MS4zMzMzMzMgOTZBMTE3LjMzMzMzMyAxMTcuMzMzMzMzIDAgMCAwIDIyNCAyMTMuMzMzMzMzaDY0YzAtMjkuNDQgMjMuODkzMzMzLTUzLjMzMzMzMyA1My4zMzMzMzMtNTMuMzMzMzMzdi02NHoiLz48L3N2Zz4=;fontSize=16;" parent="-mw9_Ihg3tqEqtLX87Jy-3" vertex="1">
          <mxGeometry x="592" y="199" width="48" height="48" as="geometry" />
        </mxCell>
        <mxCell id="-mw9_Ihg3tqEqtLX87Jy-13" value="" style="edgeStyle=orthogonalEdgeStyle;rounded=0;orthogonalLoop=1;jettySize=auto;html=1;fontSize=16;" parent="-mw9_Ihg3tqEqtLX87Jy-3" source="-mw9_Ihg3tqEqtLX87Jy-15" target="-mw9_Ihg3tqEqtLX87Jy-6" edge="1">
          <mxGeometry relative="1" as="geometry">
            <mxPoint x="489" y="-1" as="targetPoint" />
          </mxGeometry>
        </mxCell>
        <mxCell id="-mw9_Ihg3tqEqtLX87Jy-19" value="识别插件" style="shape=image;verticalLabelPosition=bottom;labelBackgroundColor=default;verticalAlign=top;aspect=fixed;imageAspect=0;image=data:image/svg+xml,PHN2ZyB4bWxuczp4bGluaz0iaHR0cDovL3d3dy53My5vcmcvMTk5OS94bGluayIgeG1sbnM9Imh0dHA6Ly93d3cudzMub3JnLzIwMDAvc3ZnIiBoZWlnaHQ9IjMyIiB3aWR0aD0iMzIiIHZlcnNpb249IjEuMSIgdmlld0JveD0iMCAwIDEwMjQgMTAyNCIgY2xhc3M9Imljb24iPjxwYXRoIGZpbGw9IiM1MTUxNTEiIGQ9Ik0zNDEuMzMzMzMzIDE2MGg1MTJ2LTY0SDM0MS4zMzMzMzN2NjR6TTUzLjMzMzMzMyA1MTJBMTYwIDE2MCAwIDAgMCAyMTMuMzMzMzMzIDY3MnYtNjRBOTYgOTYgMCAwIDEgMTE3LjMzMzMzMyA1MTJoLTY0ek0yMTMuMzMzMzMzIDM1MkExNjAgMTYwIDAgMCAwIDUzLjMzMzMzMyA1MTJoNjRBOTYgOTYgMCAwIDEgMjEzLjMzMzMzMyA0MTZ2LTY0ek03MzYgNTEyQTE2MCAxNjAgMCAwIDAgODk2IDY3MnYtNjRBOTYgOTYgMCAwIDEgODAwIDUxMmgtNjR6TTg5NiAzNTJBMTYwIDE2MCAwIDAgMCA3MzYgNTEyaDY0QTk2IDk2IDAgMCAxIDg5NiA0MTZ2LTY0eiBtLTI5OC42NjY2NjcgMzQxLjMzMzMzM0ExNjAgMTYwIDAgMCAwIDQzNy4zMzMzMzMgODUzLjMzMzMzM2g2NEE5NiA5NiAwIDAgMSA1OTcuMzMzMzMzIDc1Ny4zMzMzMzN2LTY0ek03NTcuMzMzMzMzIDg1My4zMzMzMzNBMTYwIDE2MCAwIDAgMCA1OTcuMzMzMzMzIDY5My4zMzMzMzN2NjRBOTYgOTYgMCAwIDEgNjkzLjMzMzMzMyA4NTMuMzMzMzMzaDY0eiBtMjEzLjMzMzMzNC01MTJWMjEzLjMzMzMzM2gtNjR2MTI4aDY0eiBtLTY0IDM0MS4zMzMzMzR2MTI4aDY0di0xMjhoLTY0ek03NjggOTI4aDg1LjMzMzMzM3YtNjRoLTg1LjMzMzMzM3Y2NHogbS0zNDEuMzMzMzMzLTY0SDM0MS4zMzMzMzN2NjRoODUuMzMzMzM0di02NHpNMjg4IDM0MS4zMzMzMzNWMjEzLjMzMzMzM2gtNjR2MTI4aDY0eiBtLTY0IDM0MS4zMzMzMzR2MTI4aDY0di0xMjhoLTY0ek04OTYgNjcyYTEwLjY2NjY2NyAxMC42NjY2NjcgMCAwIDEgMTAuNjY2NjY3IDEwLjY2NjY2N2g2NEE3NC42NjY2NjcgNzQuNjY2NjY3IDAgMCAwIDg5NiA2MDh2NjR6IG0wLTI1NkE3NC42NjY2NjcgNzQuNjY2NjY3IDAgMCAwIDk3MC42NjY2NjcgMzQxLjMzMzMzM2gtNjRhMTAuNjY2NjY3IDEwLjY2NjY2NyAwIDAgMS0xMC42NjY2NjcgMTAuNjY2NjY3djY0eiBtLTY4Mi42NjY2NjcgMjU2YTEwLjY2NjY2NyAxMC42NjY2NjcgMCAwIDEgMTAuNjY2NjY3IDEwLjY2NjY2N2g2NEE3NC42NjY2NjcgNzQuNjY2NjY3IDAgMCAwIDIxMy4zMzMzMzMgNjA4djY0ek00MzcuMzMzMzMzIDg1My4zMzMzMzNhMTAuNjY2NjY3IDEwLjY2NjY2NyAwIDAgMS0xMC42NjY2NjYgMTAuNjY2NjY3djY0QTc0LjY2NjY2NyA3NC42NjY2NjcgMCAwIDAgNTAxLjMzMzMzMyA4NTMuMzMzMzMzaC02NHpNMjEzLjMzMzMzMyA0MTZBNzQuNjY2NjY3IDc0LjY2NjY2NyAwIDAgMCAyODggMzQxLjMzMzMzM2gtNjRhMTAuNjY2NjY3IDEwLjY2NjY2NyAwIDAgMS0xMC42NjY2NjcgMTAuNjY2NjY3djY0ek02OTMuMzMzMzMzIDg1My4zMzMzMzNjMCA0MS4yMTYgMzMuNDUwNjY3IDc0LjY2NjY2NyA3NC42NjY2NjcgNzQuNjY2NjY3di02NGExMC42NjY2NjcgMTAuNjY2NjY3IDAgMCAxLTEwLjY2NjY2Ny0xMC42NjY2NjdoLTY0ek0zNDEuMzMzMzMzIDg2NGMtMjkuNDQgMC01My4zMzMzMzMtMjMuODkzMzMzLTUzLjMzMzMzMy01My4zMzMzMzNoLTY0QTExNy4zMzMzMzMgMTE3LjMzMzMzMyAwIDAgMCAzNDEuMzMzMzMzIDkyOHYtNjR6TTkwNi42NjY2NjcgODEwLjY2NjY2N2MwIDI5LjQ0LTIzLjg5MzMzMyA1My4zMzMzMzMtNTMuMzMzMzM0IDUzLjMzMzMzM3Y2NEExMTcuMzMzMzMzIDExNy4zMzMzMzMgMCAwIDAgOTcwLjY2NjY2NyA4MTAuNjY2NjY3aC02NHpNODUzLjMzMzMzMyAxNjBjMjkuNDQgMCA1My4zMzMzMzMgMjMuODkzMzMzIDUzLjMzMzMzNCA1My4zMzMzMzNoNjRBMTE3LjMzMzMzMyAxMTcuMzMzMzMzIDAgMCAwIDg1My4zMzMzMzMgOTZ2NjR6TTM0MS4zMzMzMzMgOTZBMTE3LjMzMzMzMyAxMTcuMzMzMzMzIDAgMCAwIDIyNCAyMTMuMzMzMzMzaDY0YzAtMjkuNDQgMjMuODkzMzMzLTUzLjMzMzMzMyA1My4zMzMzMzMtNTMuMzMzMzMzdi02NHoiLz48L3N2Zz4=;fontSize=16;" parent="-mw9_Ihg3tqEqtLX87Jy-3" vertex="1">
          <mxGeometry x="353.5" y="30" width="32" height="32" as="geometry" />
        </mxCell>
        <mxCell id="-mw9_Ihg3tqEqtLX87Jy-24" style="edgeStyle=orthogonalEdgeStyle;rounded=0;orthogonalLoop=1;jettySize=auto;html=1;fontSize=16;" parent="-mw9_Ihg3tqEqtLX87Jy-3" source="-mw9_Ihg3tqEqtLX87Jy-21" target="-mw9_Ihg3tqEqtLX87Jy-20" edge="1">
          <mxGeometry relative="1" as="geometry" />
        </mxCell>
        <mxCell id="-mw9_Ihg3tqEqtLX87Jy-21" value="调整属性" style="whiteSpace=wrap;html=1;verticalAlign=middle;labelBackgroundColor=default;fontSize=16;" parent="-mw9_Ihg3tqEqtLX87Jy-3" vertex="1">
          <mxGeometry x="556" y="62" width="120" height="60" as="geometry" />
        </mxCell>
        <mxCell id="-mw9_Ihg3tqEqtLX87Jy-27" value="" style="edgeStyle=orthogonalEdgeStyle;rounded=0;orthogonalLoop=1;jettySize=auto;html=1;fontSize=16;" parent="-mw9_Ihg3tqEqtLX87Jy-3" source="-mw9_Ihg3tqEqtLX87Jy-23" target="-mw9_Ihg3tqEqtLX87Jy-26" edge="1">
          <mxGeometry relative="1" as="geometry" />
        </mxCell>
        <mxCell id="-mw9_Ihg3tqEqtLX87Jy-23" value="Gitlab" style="shape=image;html=1;verticalAlign=top;verticalLabelPosition=bottom;labelBackgroundColor=#ffffff;imageAspect=0;aspect=fixed;image=https://cdn4.iconfinder.com/data/icons/socialcones/508/Gitlab-128.png;fontSize=16;" parent="-mw9_Ihg3tqEqtLX87Jy-3" vertex="1">
          <mxGeometry x="420" y="191" width="64" height="64" as="geometry" />
        </mxCell>
        <mxCell id="-mw9_Ihg3tqEqtLX87Jy-31" value="" style="edgeStyle=orthogonalEdgeStyle;rounded=0;orthogonalLoop=1;jettySize=auto;html=1;" parent="-mw9_Ihg3tqEqtLX87Jy-3" source="-mw9_Ihg3tqEqtLX87Jy-26" target="-mw9_Ihg3tqEqtLX87Jy-30" edge="1">
          <mxGeometry relative="1" as="geometry" />
        </mxCell>
        <mxCell id="-mw9_Ihg3tqEqtLX87Jy-26" value="需求开发" style="whiteSpace=wrap;html=1;verticalAlign=middle;labelBackgroundColor=#ffffff;fontSize=16;" parent="-mw9_Ihg3tqEqtLX87Jy-3" vertex="1">
          <mxGeometry x="200" y="193" width="120" height="60" as="geometry" />
        </mxCell>
        <mxCell id="-mw9_Ihg3tqEqtLX87Jy-30" value="" style="ellipse;whiteSpace=wrap;html=1;fontSize=16;labelBackgroundColor=#ffffff;" parent="-mw9_Ihg3tqEqtLX87Jy-3" vertex="1">
          <mxGeometry x="248" y="306.5" width="24" height="24" as="geometry" />
        </mxCell>
      </root>
    </mxGraphModel>
  </diagram>
  <diagram id="nc_zSPjn0IdpSR6n4jz3" name="p2c agents">
    <mxGraphModel dx="2261" dy="746" grid="1" gridSize="10" guides="1" tooltips="1" connect="1" arrows="1" fold="1" page="1" pageScale="1" pageWidth="827" pageHeight="1169" math="0" shadow="0">
      <root>
        <mxCell id="0" />
        <mxCell id="1" parent="0" />
        <mxCell id="v5zC7fDqaEV1cZbIhWGU-1" value="视觉稿" style="rounded=0;whiteSpace=wrap;html=1;fontFamily=微软雅黑;fontSize=20;" vertex="1" parent="1">
          <mxGeometry x="170" y="70" width="300" height="60" as="geometry" />
        </mxCell>
        <mxCell id="v5zC7fDqaEV1cZbIhWGU-2" value="需求：表格，新增" style="rounded=0;whiteSpace=wrap;html=1;fontFamily=微软雅黑;fontSize=20;" vertex="1" parent="1">
          <mxGeometry x="573" y="70" width="120" height="60" as="geometry" />
        </mxCell>
        <mxCell id="v5zC7fDqaEV1cZbIhWGU-3" value="根据需求&lt;div style=&quot;font-size: 20px;&quot;&gt;设计接口、划分组件&lt;/div&gt;" style="rounded=0;whiteSpace=wrap;html=1;fontFamily=微软雅黑;fontSize=20;" vertex="1" parent="1">
          <mxGeometry x="170" y="200" width="300" height="60" as="geometry" />
        </mxCell>
        <mxCell id="v5zC7fDqaEV1cZbIhWGU-4" value="发散功能、程序 DFX&lt;div style=&quot;font-size: 20px;&quot;&gt;&lt;/div&gt;&lt;div style=&quot;font-size: 20px;&quot;&gt;：提交数据前，禁止修改数据&lt;/div&gt;" style="rounded=0;whiteSpace=wrap;html=1;fontFamily=微软雅黑;fontSize=20;" vertex="1" parent="1">
          <mxGeometry x="170" y="330" width="300" height="60" as="geometry" />
        </mxCell>
        <mxCell id="v5zC7fDqaEV1cZbIhWGU-8" value="设计师" style="shape=umlActor;verticalLabelPosition=bottom;verticalAlign=top;html=1;outlineConnect=0;fontFamily=微软雅黑;fontSize=20;" vertex="1" parent="1">
          <mxGeometry x="40" y="70" width="30" height="60" as="geometry" />
        </mxCell>
        <mxCell id="v5zC7fDqaEV1cZbIhWGU-9" value="开发-设计" style="shape=umlActor;verticalLabelPosition=bottom;verticalAlign=top;html=1;outlineConnect=0;fontFamily=微软雅黑;fontSize=20;" vertex="1" parent="1">
          <mxGeometry x="40" y="200" width="30" height="60" as="geometry" />
        </mxCell>
        <mxCell id="v5zC7fDqaEV1cZbIhWGU-11" value="index.vue" style="sketch=0;outlineConnect=0;fontColor=#97D077;gradientColor=none;fillColor=#232F3D;strokeColor=none;dashed=0;verticalLabelPosition=bottom;verticalAlign=top;align=center;html=1;fontSize=20;fontStyle=0;aspect=fixed;pointerEvents=1;shape=mxgraph.aws4.source_code;fontFamily=微软雅黑;" vertex="1" parent="1">
          <mxGeometry x="560" y="200" width="36.54" height="50" as="geometry" />
        </mxCell>
        <mxCell id="v5zC7fDqaEV1cZbIhWGU-12" value="hooks.ts" style="sketch=0;outlineConnect=0;fontColor=#97D077;gradientColor=none;fillColor=#232F3D;strokeColor=none;dashed=0;verticalLabelPosition=bottom;verticalAlign=top;align=center;html=1;fontSize=20;fontStyle=0;aspect=fixed;pointerEvents=1;shape=mxgraph.aws4.source_code;fontFamily=微软雅黑;" vertex="1" parent="1">
          <mxGeometry x="660" y="200" width="36.54" height="50" as="geometry" />
        </mxCell>
        <mxCell id="v5zC7fDqaEV1cZbIhWGU-13" value="开发-评审" style="shape=umlActor;verticalLabelPosition=bottom;verticalAlign=top;html=1;outlineConnect=0;fontFamily=微软雅黑;fontSize=20;" vertex="1" parent="1">
          <mxGeometry x="40" y="330" width="30" height="60" as="geometry" />
        </mxCell>
        <mxCell id="v5zC7fDqaEV1cZbIhWGU-14" value="index.vue" style="sketch=0;outlineConnect=0;fontColor=#B3B3B3;gradientColor=none;fillColor=#232F3D;strokeColor=none;dashed=0;verticalLabelPosition=bottom;verticalAlign=top;align=center;html=1;fontSize=20;fontStyle=0;aspect=fixed;pointerEvents=1;shape=mxgraph.aws4.source_code;fontFamily=微软雅黑;" vertex="1" parent="1">
          <mxGeometry x="560" y="330" width="36.54" height="50" as="geometry" />
        </mxCell>
        <mxCell id="v5zC7fDqaEV1cZbIhWGU-15" value="hooks.ts" style="sketch=0;outlineConnect=0;fontColor=#FF9933;gradientColor=none;fillColor=#232F3D;strokeColor=none;dashed=0;verticalLabelPosition=bottom;verticalAlign=top;align=center;html=1;fontSize=20;fontStyle=0;aspect=fixed;pointerEvents=1;shape=mxgraph.aws4.source_code;fontFamily=微软雅黑;" vertex="1" parent="1">
          <mxGeometry x="660" y="330" width="36.54" height="50" as="geometry" />
        </mxCell>
        <mxCell id="v5zC7fDqaEV1cZbIhWGU-16" value="rule.ts" style="sketch=0;outlineConnect=0;fontColor=#97D077;gradientColor=none;fillColor=#232F3D;strokeColor=none;dashed=0;verticalLabelPosition=bottom;verticalAlign=top;align=center;html=1;fontSize=20;fontStyle=0;aspect=fixed;pointerEvents=1;shape=mxgraph.aws4.source_code;fontFamily=微软雅黑;" vertex="1" parent="1">
          <mxGeometry x="760" y="330" width="36.54" height="50" as="geometry" />
        </mxCell>
        <mxCell id="v5zC7fDqaEV1cZbIhWGU-17" value="开发-写代码" style="shape=umlActor;verticalLabelPosition=bottom;verticalAlign=top;html=1;outlineConnect=0;fontFamily=微软雅黑;fontSize=20;" vertex="1" parent="1">
          <mxGeometry x="40" y="530" width="30" height="60" as="geometry" />
        </mxCell>
        <mxCell id="v5zC7fDqaEV1cZbIhWGU-19" value="" style="shape=image;html=1;verticalAlign=top;verticalLabelPosition=bottom;labelBackgroundColor=#ffffff;imageAspect=0;image=https://cdn0.iconfinder.com/data/icons/evericons-24px-vol-1/24/more-vertical-128.png;fontFamily=微软雅黑;fontSize=20;" vertex="1" parent="1">
          <mxGeometry x="290" y="400" width="60" height="60" as="geometry" />
        </mxCell>
        <mxCell id="v5zC7fDqaEV1cZbIhWGU-21" value="完善 hook.creat() 方法" style="rounded=0;whiteSpace=wrap;html=1;fontFamily=微软雅黑;fontSize=20;" vertex="1" parent="1">
          <mxGeometry x="170" y="530" width="300" height="60" as="geometry" />
        </mxCell>
        <mxCell id="v5zC7fDqaEV1cZbIhWGU-22" value="index.vue" style="sketch=0;outlineConnect=0;fontColor=#B3B3B3;gradientColor=none;fillColor=#232F3D;strokeColor=none;dashed=0;verticalLabelPosition=bottom;verticalAlign=top;align=center;html=1;fontSize=20;fontStyle=0;aspect=fixed;pointerEvents=1;shape=mxgraph.aws4.source_code;fontFamily=微软雅黑;" vertex="1" parent="1">
          <mxGeometry x="561.5" y="535" width="36.54" height="50" as="geometry" />
        </mxCell>
        <mxCell id="v5zC7fDqaEV1cZbIhWGU-23" value="hooks.ts" style="sketch=0;outlineConnect=0;fontColor=#FF9933;gradientColor=none;fillColor=#232F3D;strokeColor=none;dashed=0;verticalLabelPosition=bottom;verticalAlign=top;align=center;html=1;fontSize=20;fontStyle=0;aspect=fixed;pointerEvents=1;shape=mxgraph.aws4.source_code;fontFamily=微软雅黑;" vertex="1" parent="1">
          <mxGeometry x="661.5" y="535" width="36.54" height="50" as="geometry" />
        </mxCell>
        <mxCell id="v5zC7fDqaEV1cZbIhWGU-24" value="rule.ts" style="sketch=0;outlineConnect=0;fontColor=#B3B3B3;gradientColor=none;fillColor=#232F3D;strokeColor=none;dashed=0;verticalLabelPosition=bottom;verticalAlign=top;align=center;html=1;fontSize=20;fontStyle=0;aspect=fixed;pointerEvents=1;shape=mxgraph.aws4.source_code;fontFamily=微软雅黑;" vertex="1" parent="1">
          <mxGeometry x="761.5" y="535" width="36.54" height="50" as="geometry" />
        </mxCell>
        <mxCell id="v5zC7fDqaEV1cZbIhWGU-25" value="开发-review" style="shape=umlActor;verticalLabelPosition=bottom;verticalAlign=top;html=1;outlineConnect=0;fontFamily=微软雅黑;fontSize=20;" vertex="1" parent="1">
          <mxGeometry x="40" y="690" width="30" height="60" as="geometry" />
        </mxCell>
        <mxCell id="v5zC7fDqaEV1cZbIhWGU-26" value="hook 中&amp;nbsp;&lt;div&gt;create 函数存在未使用变量&lt;br style=&quot;font-size: 20px;&quot;&gt;submit 函数未校验数据&lt;/div&gt;" style="rounded=0;whiteSpace=wrap;html=1;fontFamily=微软雅黑;fontSize=20;" vertex="1" parent="1">
          <mxGeometry x="170" y="680" width="300" height="80" as="geometry" />
        </mxCell>
        <mxCell id="v5zC7fDqaEV1cZbIhWGU-27" value="index.vue" style="sketch=0;outlineConnect=0;fontColor=#B3B3B3;gradientColor=none;fillColor=#232F3D;strokeColor=none;dashed=0;verticalLabelPosition=bottom;verticalAlign=top;align=center;html=1;fontSize=20;fontStyle=0;aspect=fixed;pointerEvents=1;shape=mxgraph.aws4.source_code;fontFamily=微软雅黑;" vertex="1" parent="1">
          <mxGeometry x="563" y="695" width="36.54" height="50" as="geometry" />
        </mxCell>
        <mxCell id="v5zC7fDqaEV1cZbIhWGU-28" value="hooks.ts" style="sketch=0;outlineConnect=0;fontColor=#FF9933;gradientColor=none;fillColor=#232F3D;strokeColor=none;dashed=0;verticalLabelPosition=bottom;verticalAlign=top;align=center;html=1;fontSize=20;fontStyle=0;aspect=fixed;pointerEvents=1;shape=mxgraph.aws4.source_code;fontFamily=微软雅黑;" vertex="1" parent="1">
          <mxGeometry x="663" y="695" width="36.54" height="50" as="geometry" />
        </mxCell>
        <mxCell id="v5zC7fDqaEV1cZbIhWGU-29" value="rule.ts" style="sketch=0;outlineConnect=0;fontColor=#B3B3B3;gradientColor=none;fillColor=#232F3D;strokeColor=none;dashed=0;verticalLabelPosition=bottom;verticalAlign=top;align=center;html=1;fontSize=20;fontStyle=0;aspect=fixed;pointerEvents=1;shape=mxgraph.aws4.source_code;fontFamily=微软雅黑;" vertex="1" parent="1">
          <mxGeometry x="763" y="695" width="36.54" height="50" as="geometry" />
        </mxCell>
        <mxCell id="v5zC7fDqaEV1cZbIhWGU-30" value="开发- git" style="shape=umlActor;verticalLabelPosition=bottom;verticalAlign=top;html=1;outlineConnect=0;fontFamily=微软雅黑;fontSize=20;" vertex="1" parent="1">
          <mxGeometry x="40" y="830" width="30" height="60" as="geometry" />
        </mxCell>
        <mxCell id="v5zC7fDqaEV1cZbIhWGU-31" value="feature: 新增表格" style="rounded=0;whiteSpace=wrap;html=1;fontFamily=微软雅黑;fontSize=20;" vertex="1" parent="1">
          <mxGeometry x="170" y="830" width="300" height="60" as="geometry" />
        </mxCell>
        <mxCell id="v5zC7fDqaEV1cZbIhWGU-32" value="测试" style="shape=umlActor;verticalLabelPosition=bottom;verticalAlign=top;html=1;outlineConnect=0;fontFamily=微软雅黑;fontSize=20;" vertex="1" parent="1">
          <mxGeometry x="40" y="960" width="30" height="60" as="geometry" />
        </mxCell>
        <mxCell id="v5zC7fDqaEV1cZbIhWGU-33" value="表格内删除按钮无法点击" style="rounded=0;whiteSpace=wrap;html=1;fontFamily=微软雅黑;fontSize=20;" vertex="1" parent="1">
          <mxGeometry x="170" y="960" width="300" height="60" as="geometry" />
        </mxCell>
        <mxCell id="v5zC7fDqaEV1cZbIhWGU-34" value="agents" style="shape=curlyBracket;whiteSpace=wrap;html=1;rounded=1;labelPosition=left;verticalLabelPosition=middle;align=right;verticalAlign=middle;fontSize=20;fontFamily=微软雅黑;" vertex="1" parent="1">
          <mxGeometry x="-50" y="210" width="20" height="970" as="geometry" />
        </mxCell>
        <mxCell id="v5zC7fDqaEV1cZbIhWGU-35" value="开发-review" style="shape=umlActor;verticalLabelPosition=bottom;verticalAlign=top;html=1;outlineConnect=0;fontFamily=微软雅黑;fontSize=20;" vertex="1" parent="1">
          <mxGeometry x="38.5" y="1100" width="30" height="60" as="geometry" />
        </mxCell>
        <mxCell id="v5zC7fDqaEV1cZbIhWGU-36" value="fix: 表格删除按钮无法点击修复" style="rounded=0;whiteSpace=wrap;html=1;fontFamily=微软雅黑;fontSize=20;" vertex="1" parent="1">
          <mxGeometry x="168.5" y="1100" width="300" height="60" as="geometry" />
        </mxCell>
        <mxCell id="v5zC7fDqaEV1cZbIhWGU-37" value="index.vue" style="sketch=0;outlineConnect=0;fontColor=#FF9933;gradientColor=none;fillColor=#232F3D;strokeColor=none;dashed=0;verticalLabelPosition=bottom;verticalAlign=top;align=center;html=1;fontSize=20;fontStyle=0;aspect=fixed;pointerEvents=1;shape=mxgraph.aws4.source_code;fontFamily=微软雅黑;" vertex="1" parent="1">
          <mxGeometry x="561.5" y="1105" width="36.54" height="50" as="geometry" />
        </mxCell>
        <mxCell id="v5zC7fDqaEV1cZbIhWGU-38" value="hooks.ts" style="sketch=0;outlineConnect=0;fontColor=#B3B3B3;gradientColor=none;fillColor=#232F3D;strokeColor=none;dashed=0;verticalLabelPosition=bottom;verticalAlign=top;align=center;html=1;fontSize=20;fontStyle=0;aspect=fixed;pointerEvents=1;shape=mxgraph.aws4.source_code;fontFamily=微软雅黑;" vertex="1" parent="1">
          <mxGeometry x="661.5" y="1105" width="36.54" height="50" as="geometry" />
        </mxCell>
        <mxCell id="v5zC7fDqaEV1cZbIhWGU-39" value="rule.ts" style="sketch=0;outlineConnect=0;fontColor=#B3B3B3;gradientColor=none;fillColor=#232F3D;strokeColor=none;dashed=0;verticalLabelPosition=bottom;verticalAlign=top;align=center;html=1;fontSize=20;fontStyle=0;aspect=fixed;pointerEvents=1;shape=mxgraph.aws4.source_code;fontFamily=微软雅黑;" vertex="1" parent="1">
          <mxGeometry x="761.5" y="1105" width="36.54" height="50" as="geometry" />
        </mxCell>
        <mxCell id="v5zC7fDqaEV1cZbIhWGU-40" value="" style="shape=image;html=1;verticalAlign=top;verticalLabelPosition=bottom;labelBackgroundColor=#ffffff;imageAspect=0;image=https://cdn0.iconfinder.com/data/icons/evericons-24px-vol-1/24/more-vertical-128.png;fontFamily=微软雅黑;fontSize=20;" vertex="1" parent="1">
          <mxGeometry x="288.5" y="1180" width="60" height="60" as="geometry" />
        </mxCell>
      </root>
    </mxGraphModel>
  </diagram>
</mxfile>
